<?xml version="1.0" standalone="no"?>
<!DOCTYPE svg PUBLIC "-//W3C//DTD SVG 20010904//EN"
 "http://www.w3.org/TR/2001/REC-SVG-20010904/DTD/svg10.dtd">
<svg version="1.0" xmlns="http://www.w3.org/2000/svg"
 width="1080.000000pt" height="1080.000000pt" viewBox="0 0 1080.000000 1080.000000"
 preserveAspectRatio="xMidYMid meet">
<metadata>
Created by potrace 1.11, written by Peter Selinger 2001-2013
</metadata>
<g transform="translate(0.000000,1080.000000) scale(0.100000,-0.100000)"
fill="#000000" stroke="none">
<path d="M4900 10100 c-219 -8 -336 -23 -451 -59 -146 -45 -207 -61 -269 -71
-98 -16 -390 -113 -547 -182 -24 -10 -47 -18 -52 -18 -22 0 -338 -128 -446
-181 -117 -57 -270 -137 -310 -162 -48 -30 -114 -76 -165 -113 -30 -23 -86
-59 -125 -80 -91 -50 -233 -156 -399 -299 -45 -38 -121 -101 -170 -140 -140
-111 -202 -180 -243 -267 -10 -21 -24 -38 -30 -38 -7 0 -15 -11 -19 -25 -3
-14 -10 -25 -14 -25 -5 0 -12 -9 -15 -20 -6 -19 -21 -38 -73 -95 -10 -11 -42
-53 -72 -92 -30 -40 -58 -73 -62 -73 -4 0 -8 -5 -8 -10 0 -6 -18 -37 -40 -69
-22 -32 -40 -63 -40 -68 0 -6 -13 -28 -28 -49 -16 -21 -45 -68 -66 -104 -21
-36 -41 -67 -45 -70 -4 -3 -18 -21 -31 -40 -13 -19 -30 -41 -37 -48 -7 -7 -13
-20 -13 -27 0 -7 -6 -20 -13 -27 -7 -7 -19 -29 -27 -48 -7 -19 -18 -41 -23
-47 -11 -14 -66 -120 -68 -131 -1 -4 -10 -25 -20 -47 -49 -109 -60 -139 -66
-166 -3 -15 -12 -34 -19 -40 -8 -6 -14 -17 -14 -24 0 -6 -9 -20 -19 -29 -11
-10 -25 -32 -31 -49 -7 -18 -16 -41 -21 -52 -59 -135 -171 -484 -184 -575 -3
-19 -18 -91 -34 -160 -38 -162 -48 -216 -60 -325 -5 -49 -17 -146 -27 -215
-17 -132 -24 -632 -10 -775 14 -147 28 -253 47 -350 11 -55 22 -113 25 -130 2
-16 9 -41 13 -55 5 -14 15 -61 21 -105 7 -44 16 -91 22 -104 5 -14 11 -44 14
-66 3 -22 13 -67 23 -100 10 -33 29 -94 41 -135 21 -68 54 -151 114 -285 13
-27 29 -66 36 -85 36 -100 45 -125 50 -130 3 -3 11 -23 19 -45 12 -35 36 -90
68 -150 6 -11 34 -69 64 -130 29 -60 58 -117 65 -125 7 -8 31 -51 54 -95 23
-44 90 -152 149 -239 58 -88 111 -169 118 -180 29 -49 190 -268 267 -364 90
-111 421 -422 525 -492 20 -14 60 -42 88 -63 28 -20 54 -37 58 -37 3 0 41 -23
83 -52 165 -112 248 -165 280 -177 18 -8 51 -27 72 -42 22 -16 42 -29 45 -29
3 0 26 -15 52 -34 64 -45 300 -167 399 -206 44 -17 88 -35 99 -40 23 -12 220
-85 285 -106 25 -9 59 -22 77 -30 17 -8 36 -14 43 -14 6 0 71 -20 143 -44 179
-58 232 -73 302 -85 33 -5 105 -21 160 -36 182 -47 225 -56 235 -50 5 3 26 -2
47 -11 65 -28 317 -51 579 -52 246 -2 380 6 514 33 41 8 95 16 120 19 185 18
295 38 520 96 63 16 194 45 290 65 321 67 622 183 830 320 36 24 85 54 110 67
25 13 63 35 85 49 22 13 79 44 128 67 48 24 118 64 155 89 37 26 99 68 138 95
39 27 96 70 125 96 30 26 103 85 163 132 60 47 139 110 175 140 92 77 389 390
506 533 39 49 165 249 165 263 0 3 14 22 30 41 17 18 44 60 60 91 17 31 55 95
85 142 54 82 266 501 299 588 9 23 33 79 54 125 22 45 48 103 60 128 22 51 72
236 72 271 0 12 4 35 9 52 10 32 42 193 43 211 0 6 3 15 7 20 11 14 74 334
105 535 24 150 27 193 28 485 1 368 -9 513 -58 815 -20 118 -42 265 -50 325
-8 61 -23 133 -33 160 -11 28 -31 92 -45 143 -14 51 -35 113 -46 137 -11 24
-20 48 -20 52 0 15 -57 187 -93 280 -38 97 -160 348 -181 373 -7 8 -16 28 -20
43 -4 16 -16 38 -26 50 -11 11 -20 26 -20 33 0 6 -6 17 -14 23 -8 7 -17 24
-21 39 -4 15 -12 34 -20 42 -7 8 -30 48 -50 89 -21 41 -45 81 -55 91 -9 9 -20
23 -23 31 -4 8 -22 33 -39 55 -18 23 -66 85 -106 138 -168 222 -336 403 -615
661 -60 55 -138 128 -174 163 -36 35 -117 102 -180 150 -62 48 -130 99 -150
115 -49 37 -330 200 -488 282 -71 37 -185 96 -253 132 -113 59 -161 79 -279
118 -23 8 -52 20 -65 27 -13 7 -43 18 -68 25 -25 6 -90 28 -145 49 -55 20
-131 45 -170 55 -38 10 -98 29 -132 43 -35 13 -109 31 -165 40 -218 32 -396
55 -478 62 -47 3 -107 8 -135 11 -89 9 -614 11 -835 3z m777 -1471 c87 -85
137 -152 215 -284 132 -223 250 -485 284 -628 16 -71 37 -144 75 -260 11 -31
19 -66 19 -76 0 -10 7 -35 16 -56 24 -58 12 -50 -20 13 -55 110 -151 262 -168
268 -10 3 -25 12 -33 21 -28 27 -151 20 -245 -14 -44 -16 -100 -63 -100 -83 0
-5 -4 -10 -8 -10 -11 0 -45 -80 -43 -97 1 -7 -3 -13 -8 -13 -6 0 -18 -26 -27
-57 -13 -46 -19 -54 -28 -42 -6 9 -24 19 -40 23 -23 6 -27 4 -23 -8 9 -22 -10
-20 -22 2 -9 16 -10 15 -18 -5 -4 -12 -12 -23 -18 -24 -58 -10 -112 -83 -127
-173 -6 -34 -15 -65 -22 -71 -6 -5 -12 -26 -13 -45 -3 -45 -43 -216 -60 -257
-13 -33 -43 -37 -43 -7 0 8 -4 14 -10 14 -15 0 -110 71 -110 82 0 6 -8 8 -18
6 -10 -3 -24 2 -32 10 -9 10 -15 11 -18 4 -2 -6 -9 -9 -17 -6 -7 3 -16 0 -20
-6 -4 -7 2 -14 14 -17 12 -3 21 -11 21 -18 0 -8 -8 -11 -20 -8 -24 6 -26 -9
-5 -31 13 -13 13 -15 -5 -21 -18 -6 -18 -8 -5 -21 13 -14 17 -14 31 0 18 19
14 19 53 5 17 -6 31 -17 31 -24 0 -7 6 -16 13 -19 9 -3 7 -8 -5 -19 -14 -11
-15 -16 -5 -26 9 -9 9 -14 -3 -21 -16 -10 -33 -3 -25 10 3 5 1 11 -5 15 -5 3
-10 -3 -10 -14 0 -11 -8 -25 -17 -30 -10 -6 -12 -11 -5 -11 20 0 14 -17 -9
-23 -15 -4 -20 -11 -16 -21 8 -19 -42 -73 -75 -81 -26 -7 -62 -50 -53 -64 9
-16 108 4 126 25 6 8 22 12 35 9 13 -3 36 -7 50 -10 16 -4 23 -2 19 5 -9 14
18 13 34 -2 11 -11 13 -10 8 4 -3 10 -3 19 1 22 16 10 33 -12 34 -42 1 -24 6
-31 25 -35 16 -3 27 1 30 10 5 13 7 13 15 -1 5 -9 16 -16 25 -16 8 0 38 -22
66 -50 28 -27 53 -47 56 -44 3 3 -2 11 -12 18 -9 7 -17 23 -17 35 0 20 -75
103 -139 155 -19 14 -21 20 -10 27 11 7 10 9 -4 9 -10 0 -15 5 -12 10 4 6 11
8 16 4 5 -3 17 0 25 7 27 22 134 -23 134 -58 0 -7 7 -13 15 -13 8 0 15 -7 15
-15 0 -8 16 -33 36 -55 29 -31 35 -46 32 -69 -2 -17 -1 -28 4 -25 8 5 12 -17
9 -43 -3 -25 17 -12 24 15 7 29 40 76 82 118 20 20 32 25 55 20 40 -8 61 -31
54 -58 -3 -13 -3 -17 0 -10 3 6 10 12 15 12 15 0 10 -28 -11 -62 -11 -18 -20
-44 -20 -58 0 -34 -22 -75 -40 -75 -9 0 -17 -15 -22 -40 -4 -22 -18 -62 -32
-89 -14 -27 -23 -52 -20 -57 3 -5 0 -9 -6 -9 -6 0 -10 -8 -8 -17 5 -27 -25
-22 -39 7 l-13 25 -6 -22 c-4 -13 -10 -23 -15 -23 -5 0 -9 -5 -9 -11 0 -6 9
-8 23 -4 19 5 20 4 5 -5 -22 -13 -23 -38 -4 -66 8 -11 16 -31 19 -44 3 -14 4
4 1 39 -5 58 -4 63 11 51 13 -11 18 -10 30 6 8 10 15 27 15 37 0 34 48 112 87
141 33 25 38 34 37 65 -1 50 25 92 66 107 34 12 34 13 8 13 -16 1 -28 5 -28 9
0 5 15 30 34 57 34 48 108 95 149 95 30 0 46 -22 35 -50 -23 -61 -41 -88 -66
-101 -15 -8 -39 -27 -55 -43 -18 -19 -34 -27 -47 -23 -11 3 -20 1 -20 -4 0 -5
7 -9 15 -9 8 0 15 -4 15 -10 0 -5 -16 -10 -35 -10 -29 0 -37 -5 -45 -26 -12
-30 -13 -45 -2 -42 16 4 52 -14 52 -27 0 -7 5 -15 12 -17 6 -2 8 -11 4 -19
-14 -28 -32 -57 -46 -74 -12 -14 -12 -18 1 -27 11 -8 10 -9 -4 -4 -11 4 -20 0
-24 -12 -8 -22 -43 -67 -43 -56 0 5 -4 4 -8 -1 -4 -6 -19 -16 -34 -24 -14 -7
-24 -19 -22 -25 2 -6 -9 -17 -26 -23 -20 -8 -30 -18 -30 -33 0 -12 5 -18 10
-15 6 3 10 2 10 -2 0 -5 -31 -9 -70 -9 -65 -1 -85 6 -60 21 16 10 11 28 -6 21
-23 -9 -94 5 -94 18 -1 19 -86 66 -119 66 -35 0 -38 -8 -15 -55 10 -22 21 -32
30 -28 8 3 14 1 14 -5 0 -5 9 -12 21 -15 16 -4 19 -11 14 -26 -5 -16 -2 -21
10 -21 9 0 19 9 22 20 7 25 17 19 37 -21 11 -21 12 -29 3 -26 -54 22 -54 22
-33 -1 11 -12 27 -22 36 -22 9 0 22 -6 29 -12 11 -10 13 -10 7 0 -4 6 -2 12 3
12 6 0 11 -7 11 -15 0 -23 -41 -44 -77 -39 -29 3 -33 1 -33 -19 0 -32 -18 -47
-57 -47 -18 0 -33 -4 -33 -10 0 -5 7 -10 15 -10 11 0 10 -6 -6 -24 -17 -19
-24 -22 -34 -13 -9 9 -10 14 -1 20 8 6 8 10 -1 14 -7 2 -15 4 -18 3 -3 0 -14
8 -23 18 -9 10 -30 24 -46 31 -26 10 -28 10 -22 -6 4 -10 -7 -3 -24 16 -17 18
-30 43 -29 55 2 37 -1 52 -9 40 -12 -18 -43 -13 -37 6 6 20 -19 45 -35 35 -7
-4 -10 0 -8 10 2 10 -3 20 -9 22 -7 3 -13 -3 -14 -14 0 -10 -14 11 -31 47 -17
36 -35 67 -40 68 -4 2 -6 8 -3 13 3 5 0 19 -7 31 -7 13 -13 28 -13 33 -1 16
-27 59 -43 71 -9 7 -13 22 -10 41 2 16 -1 35 -8 41 -17 16 -24 4 -13 -25 6
-15 5 -31 -1 -43 -15 -28 -12 -40 10 -40 11 0 20 -2 20 -4 0 -2 3 -12 7 -22 4
-12 3 -15 -5 -10 -18 11 -14 -1 6 -21 14 -13 16 -26 11 -48 -4 -16 -7 -25 -8
-20 0 6 -11 11 -22 12 l-22 2 22 -16 c15 -10 19 -19 13 -25 -17 -17 -2 -38 25
-38 24 0 25 -3 20 -37 -5 -28 2 -62 29 -137 20 -56 36 -108 36 -116 1 -8 4
-19 8 -25 6 -8 14 -33 22 -72 1 -5 7 -14 14 -20 7 -7 15 -31 19 -53 5 -30 11
-40 26 -40 11 0 19 -7 19 -17 0 -15 1 -15 13 2 16 21 39 12 30 -13 -3 -9 3 -6
13 8 10 14 22 28 27 31 5 4 6 12 2 19 -5 8 -12 7 -26 -6 -18 -16 -19 -16 -19
4 0 18 6 22 29 22 17 0 33 5 36 10 3 6 1 10 -6 10 -10 0 -10 3 -1 12 8 8 17 5
37 -13 59 -54 180 -184 202 -216 17 -26 38 -31 29 -8 -5 13 5 20 27 16 4 0 7
7 7 17 0 14 2 14 9 3 5 -8 7 -20 4 -28 -3 -7 0 -13 7 -13 7 0 10 -7 6 -16 -4
-12 -1 -14 13 -9 15 5 18 2 14 -13 -3 -14 2 -21 16 -25 12 -3 21 -1 21 4 0 5
-4 9 -10 9 -5 0 -10 9 -10 19 0 11 5 23 10 26 6 3 10 19 10 36 0 16 4 29 9 29
9 0 30 53 35 85 1 7 8 20 15 29 11 13 11 19 1 31 -10 12 -10 15 1 15 8 0 25
17 39 37 14 20 37 49 52 65 16 16 25 36 23 48 -2 11 0 22 6 25 15 10 10 23
-12 30 -14 5 -19 13 -16 26 3 12 0 19 -8 19 -15 0 -25 40 -21 86 3 40 44 94
71 94 11 0 28 8 36 18 9 9 26 25 38 34 25 21 27 35 5 40 -12 2 1 19 42 59 33
31 60 67 62 80 5 37 25 53 51 40 14 -8 32 -9 53 -3 26 7 32 14 31 31 -2 12 3
24 10 26 9 4 14 49 8 73 -1 1 -10 -2 -21 -8 -11 -6 -17 -16 -13 -26 3 -9 0
-14 -7 -12 -8 2 -19 -8 -26 -22 -7 -13 -22 -28 -34 -32 -12 -4 -19 -4 -16 1 3
5 -2 12 -12 16 -16 6 -16 7 2 20 10 8 15 18 11 24 -3 6 0 9 7 6 7 -2 22 2 33
11 17 13 18 16 5 24 -13 8 -11 13 11 32 14 13 31 32 37 43 10 18 11 18 12 2 0
-10 5 -15 10 -12 6 4 8 11 4 16 -3 5 1 21 10 34 9 13 12 26 7 29 -4 3 -8 19
-9 36 0 23 4 30 19 30 20 0 26 -15 9 -25 -18 -11 -11 -31 15 -45 29 -15 34
-60 10 -80 -24 -20 -18 -30 19 -30 39 0 51 -12 51 -52 0 -34 18 -42 20 -11 2
30 7 33 41 36 28 2 29 1 27 -45 -3 -42 0 -48 17 -48 10 0 25 -6 32 -14 10 -10
19 -11 35 -3 13 6 23 14 23 20 0 11 41 45 80 67 63 35 110 71 105 80 -13 21 7
31 26 14 10 -9 16 -21 12 -27 -4 -6 0 -8 10 -4 11 4 14 2 11 -7 -4 -9 3 -13
20 -11 19 2 26 -3 30 -21 4 -13 11 -24 16 -24 5 0 7 -6 4 -13 -7 -20 13 -67
29 -67 10 0 13 -16 12 -62 -2 -70 3 -91 16 -82 14 8 11 -20 -3 -35 -10 -11
-10 -13 0 -7 15 9 17 -70 1 -79 -6 -4 -8 -13 -5 -21 3 -7 1 -16 -4 -19 -6 -4
-10 -11 -10 -18 0 -8 3 -8 12 1 14 14 32 16 24 3 -3 -5 1 -11 9 -15 9 -3 12
-12 8 -23 -8 -23 7 -10 21 18 9 18 21 23 60 24 37 1 53 7 66 23 10 12 21 18
25 14 4 -4 6 0 4 8 -3 23 12 51 24 43 6 -3 7 -1 3 5 -3 6 6 23 20 37 15 15 24
20 21 11 -4 -9 -2 -16 3 -16 4 0 12 15 16 32 3 18 13 43 21 55 9 13 12 23 8
23 -5 0 4 10 19 23 15 13 28 34 30 48 4 39 18 79 26 79 5 0 0 -30 -11 -67 -10
-37 -17 -69 -15 -71 7 -7 40 62 43 88 1 14 4 38 7 54 5 24 4 27 -9 16 -9 -8
-15 -9 -15 -2 0 6 5 14 10 17 10 6 74 132 76 150 3 31 17 64 25 59 5 -3 9 0 9
5 0 6 -5 11 -11 11 -6 0 -8 15 -5 38 2 20 10 81 17 135 7 53 17 97 21 97 5 0
6 5 3 11 -10 16 -12 69 -3 69 13 0 9 17 -7 33 -11 11 -11 17 -3 19 9 3 8 34
-6 127 -10 67 -15 133 -12 146 4 14 3 25 -1 24 -20 -3 -23 2 -9 17 16 16 12
39 -5 29 -12 -8 -12 28 1 41 13 13 -7 74 -23 74 -7 0 -21 14 -32 31 -18 27
-24 30 -56 26 -38 -5 -102 -44 -93 -58 2 -4 -5 -10 -16 -14 -12 -4 -19 -14
-18 -23 2 -11 -5 -18 -18 -20 -17 -2 -25 -14 -33 -47 -6 -26 -22 -53 -39 -67
-16 -13 -43 -55 -61 -93 -17 -39 -36 -77 -41 -85 -17 -27 -46 -94 -60 -140 -7
-25 -18 -50 -22 -57 -17 -21 -78 -148 -78 -160 0 -6 -24 -43 -52 -82 -29 -38
-73 -97 -97 -131 -24 -33 -47 -63 -52 -65 -9 -6 -10 315 -1 329 8 14 4 150 -8
240 -12 85 -31 160 -50 196 -10 18 -6 31 29 88 126 208 209 314 421 536 234
246 278 286 315 286 19 0 37 5 40 11 18 28 113 -21 146 -75 10 -17 19 -25 19
-18 0 6 5 12 10 12 6 0 10 -92 10 -256 0 -238 1 -255 18 -252 9 2 16 9 15 16
-2 6 8 14 22 18 14 3 23 9 20 13 -2 4 10 16 28 26 18 10 52 38 77 62 25 24 48
43 53 43 4 0 7 5 7 11 0 15 65 79 80 79 5 0 10 5 10 10 0 6 4 10 10 10 5 0 30
20 56 45 25 25 52 45 60 45 8 0 14 3 14 8 0 4 10 12 23 19 73 37 96 45 134 47
24 0 43 5 43 9 0 12 137 0 180 -14 40 -14 83 -40 76 -46 -2 -3 -16 3 -30 12
-29 19 -36 10 -8 -11 15 -12 15 -12 -7 -7 -18 4 -22 2 -19 -8 3 -8 12 -13 19
-12 9 2 15 -6 16 -19 2 -18 0 -20 -7 -8 -11 17 -12 12 -15 -50 -3 -95 -24
-168 -45 -155 -9 6 -23 -25 -15 -33 3 -3 5 0 5 6 0 7 4 12 8 12 4 0 6 -16 4
-35 -4 -34 -31 -62 -46 -48 -3 3 -6 1 -6 -5 0 -16 18 -24 23 -10 2 7 8 10 12
6 4 -4 4 -15 -1 -25 -4 -10 -9 -25 -10 -33 -1 -8 -12 -41 -23 -72 -12 -32 -21
-67 -21 -78 0 -11 -5 -20 -11 -20 -5 0 -8 -4 -5 -8 5 -9 -26 -102 -73 -213
-27 -65 -35 -76 -51 -72 -25 7 -26 -5 -2 -24 16 -14 16 -14 -1 -9 -13 4 -24
-4 -38 -29 -12 -19 -24 -35 -28 -35 -4 0 -8 -7 -8 -15 0 -8 4 -12 8 -9 4 2 9
1 12 -3 2 -5 2 -2 1 5 -2 6 1 12 6 12 6 0 10 9 10 19 0 11 5 23 10 26 6 3 10
1 10 -5 0 -8 -29 -79 -47 -113 -2 -4 7 -11 22 -17 14 -5 28 -18 32 -27 4 -10
12 -21 19 -26 7 -4 11 -14 8 -21 -3 -8 4 -16 20 -20 14 -3 26 -14 26 -22 0 -9
14 -45 31 -81 59 -124 79 -217 63 -296 -6 -31 -10 -57 -8 -57 12 0 162 34 219
50 141 38 241 63 270 66 94 10 348 1 385 -13 23 -9 28 -10 56 -12 14 0 23 -5
19 -10 -3 -6 3 -18 14 -28 32 -30 37 -117 11 -183 -12 -30 -27 -71 -32 -90
-37 -137 -107 -214 -234 -260 -33 -12 -114 -85 -114 -104 -1 -32 -171 -251
-290 -375 -60 -62 -177 -161 -242 -206 -29 -19 -87 -60 -128 -90 -41 -29 -79
-54 -83 -54 -16 -2 -78 -49 -70 -54 4 -2 39 -14 76 -26 110 -35 209 -82 203
-97 -3 -7 -1 -16 4 -19 6 -4 10 -1 10 4 0 17 15 13 43 -13 14 -13 36 -26 49
-29 13 -4 41 -22 63 -42 22 -19 44 -35 49 -35 13 0 104 -99 112 -122 3 -11 22
-34 41 -51 41 -36 84 -111 52 -91 -8 4 -8 0 0 -15 7 -11 14 -21 17 -21 3 0 2
5 -1 10 -3 6 -1 10 5 10 6 0 15 -10 21 -22 5 -13 16 -34 24 -48 19 -33 19 -70
-1 -130 -15 -46 -88 -140 -109 -140 -6 0 -16 -9 -23 -21 -7 -12 -16 -19 -19
-16 -2 3 -28 -8 -56 -25 -70 -41 -84 -46 -179 -58 -46 -6 -92 -13 -103 -14
-131 -20 -179 -22 -370 -11 -128 7 -204 18 -385 59 -36 8 -141 40 -235 71 -93
31 -180 59 -193 61 -39 8 -136 46 -162 64 -14 10 -77 43 -140 75 -63 31 -126
65 -140 74 -14 10 -47 28 -75 41 -27 13 -62 37 -77 53 -30 31 -38 21 -14 -16
26 -41 136 -444 155 -567 6 -41 16 -120 22 -175 5 -55 13 -122 16 -150 11 -85
7 -355 -6 -450 -6 -49 -16 -121 -21 -160 -6 -38 -12 -92 -15 -118 -3 -26 -9
-56 -15 -67 -7 -13 -7 -21 1 -26 8 -5 8 -9 -1 -14 -7 -4 -15 -29 -17 -56 -2
-26 -9 -55 -16 -63 -9 -12 -9 -13 1 -7 7 4 12 1 12 -8 0 -9 -7 -16 -16 -16
-10 0 -14 -6 -10 -17 8 -25 -49 -111 -82 -125 -15 -7 -37 -21 -49 -32 -13 -11
-26 -16 -30 -13 -3 4 -11 3 -17 -2 -6 -5 -29 -14 -51 -20 -30 -8 -41 -8 -47 2
-5 8 -8 7 -8 -5 0 -11 -8 -18 -20 -18 -11 0 -20 3 -20 8 0 4 -25 6 -55 5 -30
-1 -57 3 -61 8 -3 5 -9 7 -13 5 -9 -6 -90 18 -122 36 -88 48 -146 94 -234 182
-153 155 -268 282 -291 324 -11 21 -52 83 -90 137 -39 55 -81 118 -94 140 -13
22 -37 56 -53 75 -32 36 -93 161 -209 424 -66 150 -90 218 -105 294 l-6 33
-23 -22 c-34 -32 -29 -16 7 23 17 18 39 51 50 74 11 23 29 51 40 63 26 28 16
41 -11 16 -12 -11 -20 -13 -20 -6 0 7 -5 9 -11 6 -6 -4 -8 -13 -5 -21 3 -8 -3
-22 -14 -31 -10 -9 -17 -20 -14 -25 3 -4 -4 -19 -14 -33 -14 -17 -22 -21 -25
-13 -3 7 -6 3 -6 -9 -1 -13 -7 -23 -15 -23 -8 0 -18 -5 -22 -12 -5 -8 -1 -9
12 -5 10 4 1 -9 -21 -30 -22 -20 -34 -33 -26 -28 9 5 8 -1 -4 -18 -9 -15 -14
-30 -11 -36 4 -5 -5 -18 -19 -29 -14 -11 -25 -25 -25 -32 0 -6 -5 -8 -11 -4
-7 4 -10 1 -7 -7 3 -8 -14 -28 -38 -48 -24 -18 -42 -37 -39 -40 9 -16 -273
-261 -301 -261 -4 0 -25 -14 -48 -30 -128 -96 -154 -113 -178 -122 -16 -5 -28
-14 -28 -19 0 -5 -5 -9 -10 -9 -6 0 -29 -12 -53 -27 -40 -25 -154 -87 -259
-139 -27 -13 -54 -24 -61 -24 -7 0 -17 -4 -23 -9 -5 -5 -52 -26 -104 -46 -52
-21 -106 -46 -120 -56 -46 -32 -139 -50 -206 -39 -72 11 -151 46 -181 80 -12
14 -33 38 -47 54 -14 16 -28 44 -32 62 -3 19 -9 34 -13 34 -4 0 -7 9 -7 20 0
11 3 20 7 20 3 0 3 20 -1 44 -4 26 -1 63 7 92 7 27 17 69 23 94 6 24 15 49 19
55 5 5 11 22 15 38 3 15 11 27 16 27 6 0 10 6 10 14 0 13 48 109 97 194 33 58
101 154 145 206 18 22 42 51 53 66 50 69 84 110 140 169 109 116 149 155 205
201 31 25 62 51 70 58 63 55 305 222 321 222 5 0 25 11 43 25 38 29 46 31 46
9 0 -20 42 -12 76 15 12 10 62 33 111 51 87 34 107 46 97 62 -3 4 11 8 31 8
42 0 119 31 93 37 -22 6 -126 -26 -135 -41 -5 -7 -34 -18 -66 -25 -34 -7 -66
-22 -78 -34 -11 -12 -25 -22 -30 -22 -5 0 -14 -7 -19 -15 -5 -8 -10 -12 -10
-7 0 4 -15 0 -32 -9 -26 -14 -31 -14 -21 -2 7 8 31 23 53 34 22 10 40 22 40
25 0 3 -69 6 -152 7 -202 2 -380 17 -558 48 -80 14 -210 36 -290 49 -80 13
-165 29 -190 34 -25 5 -70 12 -100 15 -93 10 -92 10 -265 55 -44 12 -109 32
-145 45 -36 13 -96 30 -135 36 -38 7 -104 23 -145 35 -76 24 -254 118 -300
159 -14 12 -38 31 -55 41 -16 10 -34 24 -38 32 -4 7 -15 13 -22 13 -8 0 -15 5
-15 11 0 6 -7 9 -15 5 -8 -3 -14 -2 -14 2 1 4 0 10 -1 15 -1 4 -3 12 -4 19 0
6 -7 13 -15 16 -9 3 -11 0 -6 -9 5 -8 4 -11 -1 -6 -5 5 -9 12 -9 15 0 4 -12
25 -27 47 -15 22 -32 60 -38 85 -6 25 -15 54 -20 65 -5 11 -11 43 -14 70 -4
28 -8 60 -10 73 -2 14 2 22 10 22 17 0 19 20 2 20 -7 1 5 8 27 16 55 21 160
18 268 -8 77 -18 124 -22 287 -22 183 -1 202 1 309 28 62 15 141 41 175 56
219 99 638 187 746 156 24 -7 24 -7 6 8 -19 16 -19 16 6 16 15 0 39 -5 55 -12
42 -17 57 -18 64 -6 4 6 15 8 25 3 16 -6 14 -9 -16 -20 -29 -10 -41 -10 -69 1
-18 8 -34 14 -35 14 -1 0 -2 -9 -3 -19 -1 -16 12 -24 63 -41 35 -12 70 -20 77
-17 6 2 -4 9 -23 14 -30 9 -25 10 44 10 65 -1 73 -3 45 -10 -50 -13 -59 -27
-17 -27 21 0 38 -6 41 -13 3 -8 26 -22 52 -32 40 -15 49 -15 56 -4 7 11 9 11
9 -2 0 -20 64 -44 112 -42 26 1 38 -3 38 -12 0 -8 18 -16 50 -20 56 -8 77 -25
31 -25 -24 0 -31 -4 -31 -20 0 -24 -16 -26 -37 -5 -12 12 -29 14 -78 10 -41
-4 -72 -2 -86 5 -14 8 -19 8 -15 1 11 -17 -10 -13 -24 4 -16 19 -31 19 -24 0
8 -21 59 -44 75 -34 19 11 28 2 22 -22 -5 -18 -3 -20 16 -14 14 4 21 2 21 -7
0 -9 3 -9 10 2 8 12 13 13 29 3 15 -10 21 -10 25 0 3 8 7 9 13 2 4 -5 24 -11
43 -13 67 -5 52 -20 -19 -18 -44 1 -72 -2 -75 -9 -4 -13 33 -14 52 -1 7 4 16
5 19 2 4 -3 1 -6 -5 -6 -7 0 -12 -4 -12 -8 0 -9 94 -7 109 2 5 4 12 2 16 -3 9
-15 -27 -30 -50 -20 -28 11 -35 11 -35 -1 0 -5 6 -10 14 -10 7 0 19 -7 26 -15
7 -8 18 -15 24 -14 7 0 6 2 -2 6 -6 2 -10 9 -6 14 3 5 12 5 23 -1 21 -11 32
-4 25 15 -6 15 23 28 31 15 4 -6 1 -10 -4 -10 -6 0 -11 -4 -11 -8 0 -5 21 -8
48 -7 68 3 95 -12 88 -47 -6 -32 10 -47 27 -24 7 9 38 20 71 26 32 5 64 15 72
21 8 6 14 8 14 3 0 -5 4 -3 9 4 7 11 9 11 14 -2 4 -10 1 -16 -7 -16 -7 0 -18
-6 -24 -13 -6 -7 -36 -14 -67 -15 -34 -1 -63 -8 -72 -17 -19 -19 -37 -19 -53
0 -10 12 -10 18 -1 29 19 23 -7 31 -30 10 -18 -16 -19 -16 -13 -1 5 13 1 17
-19 17 -32 0 -57 -9 -57 -22 0 -5 13 -7 30 -3 38 8 39 -3 2 -16 -26 -9 -41
-39 -20 -39 4 0 8 5 8 10 0 6 7 10 15 10 8 0 15 -7 15 -15 0 -10 -10 -15 -30
-15 -24 0 -30 4 -30 23 0 21 -4 22 -58 22 -43 0 -56 -3 -47 -11 6 -6 26 -9 44
-6 47 7 63 -20 18 -30 -17 -3 -34 -2 -38 3 -7 12 -69 0 -69 -13 0 -6 -6 -8
-14 -5 -9 4 -16 -3 -20 -16 -8 -30 1 -34 23 -9 16 19 22 21 51 11 21 -8 34 -8
39 -2 3 6 34 10 68 11 45 0 63 -4 67 -14 5 -13 -5 -14 -64 -8 -49 5 -70 3 -70
-5 0 -6 3 -11 8 -12 58 -4 87 -10 93 -20 4 -7 14 -9 24 -6 9 4 13 11 10 17 -3
5 1 10 10 10 13 0 16 6 11 24 -5 22 -4 23 35 16 22 -4 50 -5 61 -2 15 4 19 2
14 -7 -5 -7 -25 -11 -50 -9 -31 2 -41 -1 -41 -12 0 -8 -11 -24 -24 -36 l-24
-21 42 -7 c26 -4 39 -10 35 -17 -3 -6 -17 -9 -30 -6 -14 2 -27 0 -30 -4 -3 -5
0 -9 6 -9 8 0 10 -10 6 -27 -5 -21 -4 -24 4 -13 8 13 10 13 10 -2 0 -10 4 -18
10 -18 5 0 7 -7 4 -15 -7 -18 12 -20 19 -2 4 9 8 9 14 1 4 -7 28 -19 53 -27
36 -12 46 -12 52 -3 9 16 108 16 108 1 0 -5 -8 -11 -17 -11 -10 -1 -22 -3 -28
-4 -5 -2 -18 0 -28 5 -23 10 -36 -3 -17 -16 33 -20 89 -30 111 -18 13 7 24 7
28 2 3 -6 13 -13 21 -16 9 -4 5 -6 -9 -4 -13 1 -26 -4 -29 -12 -3 -10 4 -12
35 -6 32 5 42 3 47 -10 4 -12 1 -15 -13 -10 -16 5 -18 1 -15 -25 3 -21 -1 -30
-11 -30 -22 0 -18 -17 6 -23 35 -9 11 -26 -29 -20 -20 3 -39 9 -42 12 -16 19
-61 32 -89 26 -20 -4 -31 -3 -31 4 0 6 -10 11 -22 12 -22 1 -22 1 2 9 14 4 20
8 13 9 -74 6 -173 25 -191 37 -12 8 -27 12 -33 8 -6 -4 -14 -3 -18 2 -11 15
-83 46 -75 32 10 -16 -45 18 -66 41 -16 16 -27 23 -99 63 -20 11 -43 25 -51
32 -8 7 -26 17 -40 24 -14 7 -32 16 -40 21 -8 5 -44 27 -79 48 -35 21 -75 46
-90 56 -14 9 -40 24 -58 32 -18 8 -36 21 -40 29 -5 8 -24 17 -43 19 -19 2 -46
9 -60 15 l-25 11 25 1 25 1 -24 10 c-16 6 -28 6 -34 0 -6 -6 -15 -7 -21 -2 -6
5 -29 11 -51 14 -41 5 -96 19 -127 32 -15 6 -18 2 -18 -21 0 -50 275 -323 399
-397 134 -80 347 -157 434 -157 15 0 35 -4 45 -9 20 -11 140 -42 260 -67 45
-10 78 -20 72 -24 -6 -4 59 -6 144 -6 85 1 151 -1 148 -4 -9 -7 -10 -60 -1
-60 7 0 22 -39 20 -52 0 -4 12 -5 28 -2 27 6 29 4 27 -19 -2 -18 1 -24 10 -20
8 3 14 0 14 -6 0 -6 -11 -16 -25 -21 -26 -10 -32 -24 -16 -35 6 -3 14 2 19 12
8 14 13 15 24 5 8 -6 18 -8 22 -4 18 17 60 -3 48 -23 -3 -5 2 -4 11 4 9 7 15
17 12 21 -3 4 3 14 12 21 12 10 14 10 9 2 -4 -8 -2 -13 5 -13 8 0 5 -9 -7 -22
-10 -13 -12 -18 -5 -11 12 10 17 7 28 -14 17 -32 16 -36 -2 -29 -8 3 -15 2
-15 -3 0 -10 61 -24 68 -16 3 3 -3 12 -14 19 -11 8 -19 27 -19 43 -1 15 -4 38
-9 51 -4 13 -3 22 3 22 6 0 13 -11 17 -25 4 -16 13 -25 26 -25 17 0 18 3 8 15
-7 8 -10 24 -7 35 5 20 -15 74 -24 65 -3 -2 -5 4 -5 13 0 9 -3 36 -7 60 -8 44
6 59 17 18 7 -27 43 -30 38 -3 -4 23 -21 146 -25 181 -2 17 -9 32 -15 34 -15
5 -16 32 -2 32 6 0 10 8 11 18 1 11 4 9 9 -8 7 -21 8 -21 9 -5 1 26 -18 55
-26 38 -2 -7 -12 -13 -21 -13 -14 0 -14 2 -3 9 8 5 10 14 6 21 -5 8 -4 11 3 7
5 -4 20 -3 33 1 21 8 19 12 -45 76 -58 59 -73 69 -113 74 -25 4 -46 10 -45 15
1 4 2 15 2 25 0 11 3 13 8 5 8 -12 38 -17 87 -14 l30 1 -25 20 c-23 18 -24 20
-5 21 11 1 23 1 28 0 4 0 7 4 7 9 0 6 -7 10 -16 10 -10 0 -14 6 -11 14 3 8 -1
29 -9 45 -8 17 -28 66 -44 108 -15 43 -55 152 -89 243 -59 158 -72 215 -88
377 -4 46 -11 59 -58 110 -71 77 -143 176 -174 238 -14 28 -42 75 -63 105 -92
133 -131 192 -151 229 -23 43 -137 165 -170 183 -21 11 -85 13 -116 3 -24 -7
-42 -51 -39 -95 1 -19 -1 -60 -5 -90 -5 -37 -3 -78 8 -128 8 -40 15 -93 15
-118 0 -25 7 -61 16 -82 8 -20 26 -71 40 -112 14 -41 35 -97 48 -125 13 -27
44 -97 69 -155 25 -58 65 -151 90 -206 33 -77 40 -100 28 -98 -9 2 -32 5 -51
8 -19 2 -50 8 -69 12 -25 5 -32 4 -27 -4 4 -7 20 -12 37 -12 16 0 29 -4 29
-10 0 -5 -6 -7 -12 -5 -7 2 -28 6 -46 9 -33 4 -57 16 -34 16 7 0 12 5 12 10 0
6 -9 10 -20 10 -11 0 -20 -7 -20 -16 0 -10 -5 -12 -12 -7 -7 4 -17 8 -23 9
-93 17 -161 36 -182 50 -12 7 -29 14 -36 14 -8 0 -50 11 -93 25 -43 14 -84 23
-91 21 -7 -3 -10 0 -7 7 2 7 -31 29 -83 54 -49 23 -115 58 -148 78 -33 19 -67
32 -75 29 -8 -3 -11 -2 -8 2 7 6 -61 62 -103 85 -27 14 -120 91 -161 132 -28
28 -55 37 -42 15 4 -8 3 -10 -2 -5 -5 5 -9 13 -9 18 0 10 -34 54 -90 117 -41
45 -82 109 -110 172 -13 28 -18 32 -25 20 -6 -9 -10 -10 -10 -3 0 6 4 14 9 17
5 3 -5 32 -22 63 -38 72 -36 70 -47 53 -8 -13 -10 -12 -10 3 0 9 4 17 9 17 5
0 7 9 4 21 -4 16 -8 18 -14 7 -5 -7 -6 7 -3 34 5 32 3 53 -6 63 -10 12 -10 24
0 63 7 26 17 51 21 57 5 5 9 24 9 43 0 28 3 33 17 28 15 -6 15 -5 -1 13 -10
11 -36 58 -58 103 -22 46 -45 90 -52 98 -18 21 -34 91 -41 177 -5 63 -3 77 19
120 29 58 76 108 123 130 28 13 52 14 131 9 275 -20 476 -81 665 -202 37 -24
98 -59 136 -77 37 -18 80 -43 96 -55 15 -12 31 -22 36 -22 4 0 28 -13 52 -30
25 -16 48 -30 51 -30 4 0 30 -17 59 -38 29 -21 84 -56 122 -79 155 -92 365
-264 365 -299 0 -12 9 -28 20 -35 12 -9 20 -27 22 -49 1 -19 5 -39 8 -45 4 -5
13 -35 21 -65 7 -30 28 -83 46 -118 18 -34 33 -67 33 -72 0 -18 70 -191 113
-280 31 -64 42 -80 45 -62 2 12 6 22 10 22 4 0 8 30 8 68 1 37 8 84 17 105 9
20 13 37 9 37 -4 0 -13 12 -20 28 -17 40 -53 97 -63 100 -5 2 -9 12 -9 22 0
10 -6 25 -14 32 -7 8 -30 50 -50 93 -20 44 -40 82 -44 85 -4 3 -13 16 -20 29
-12 20 -12 25 0 32 10 7 9 9 -5 9 -22 0 -39 40 -57 130 -7 36 -17 68 -22 71
-5 3 -10 52 -11 108 0 55 -4 101 -8 101 -12 0 -29 -60 -29 -101 0 -41 -8 -52
-29 -40 -8 5 -11 17 -7 29 4 11 3 23 -2 26 -14 8 -21 73 -40 336 -8 109 -7
462 1 500 3 14 9 45 12 70 3 25 8 52 12 60 3 8 7 21 9 29 1 8 16 41 32 75 16
34 33 75 37 91 9 41 52 95 75 95 10 0 22 5 25 11 4 6 19 7 36 4 17 -4 29 -2
29 3 0 9 20 0 138 -61 19 -10 78 -56 130 -103 53 -46 101 -84 107 -84 6 0 27
-25 48 -55 39 -58 44 -71 26 -59 -7 4 -10 1 -7 -7 3 -8 14 -13 26 -11 16 2 23
-4 28 -22 3 -14 12 -26 20 -26 8 0 14 -7 14 -16 0 -8 12 -30 27 -49 28 -34 28
-34 40 -12 7 12 12 29 13 38 0 18 31 90 91 214 22 43 39 84 39 91 0 19 49 104
85 149 19 23 35 47 35 54 0 33 111 165 145 173 11 3 37 4 58 3 33 -2 49 -13
104 -66z m2633 -879 c0 -5 -4 -10 -10 -10 -5 0 -10 5 -10 10 0 6 5 10 10 10 6
0 10 -4 10 -10z m-10 -95 c0 -5 -5 -3 -10 5 -8 12 -10 12 -10 1 0 -8 -2 -12
-5 -9 -3 3 -2 13 1 22 5 14 9 15 15 4 5 -7 9 -17 9 -23z m-2457 -109 c4 -10 1
-13 -8 -9 -8 3 -12 9 -9 14 7 12 11 11 17 -5z m165 -44 c2 -7 -8 -6 -27 4 -17
9 -31 17 -31 19 0 9 54 -13 58 -23z m-95 -39 c-7 -2 -21 -2 -30 0 -10 3 -4 5
12 5 17 0 24 -2 18 -5z m97 -6 c0 -8 12 -20 28 -27 22 -11 24 -14 9 -18 -28
-6 -47 5 -47 29 0 16 -5 20 -19 16 -10 -2 -25 -1 -32 4 -9 6 -1 9 24 9 24 0
37 -5 37 -13z m31 -10 c-10 -9 -11 -8 -5 6 3 10 9 15 12 12 3 -3 0 -11 -7 -18z
m-91 -17 c0 -5 -7 -10 -15 -10 -8 0 -15 -9 -15 -20 0 -11 7 -20 15 -20 8 0 15
-4 15 -10 0 -12 -20 -13 -36 -2 -8 5 -12 56 -5 70 4 7 41 0 41 -8z m-125 -10
c5 -8 11 -7 20 0 8 7 22 10 32 7 15 -3 13 -6 -9 -15 -35 -14 -36 -32 -3 -32
14 0 25 -4 25 -10 0 -5 -12 -10 -28 -10 -19 0 -30 7 -37 23 -8 18 -18 22 -51
21 -30 0 -40 4 -37 13 6 16 79 18 88 3z m-18 -65 c26 -26 41 -34 59 -30 13 3
36 7 50 10 24 5 25 4 11 -10 -9 -8 -27 -15 -41 -15 -14 0 -26 -4 -26 -10 0 -5
4 -10 9 -10 5 0 7 -9 4 -20 -4 -15 0 -20 16 -20 12 0 25 8 28 17 8 21 43 56
43 44 0 -5 -7 -16 -15 -25 -20 -19 -19 -23 6 -29 18 -5 19 -8 8 -28 l-11 -22
-14 24 -13 24 -1 -27 c0 -21 5 -28 20 -28 12 0 20 -7 20 -16 0 -9 7 -22 16
-28 8 -6 16 -18 18 -26 15 -77 20 -97 28 -107 5 -7 7 -17 3 -23 -12 -20 -23
-9 -29 30 -4 24 -11 38 -17 35 -7 -5 -6 -11 1 -20 7 -9 9 -27 5 -46 -5 -22 -3
-34 6 -40 10 -6 11 -11 3 -16 -6 -5 -14 -21 -18 -37 -6 -23 -9 -27 -17 -15 -7
12 -9 11 -9 -3 0 -10 5 -18 10 -18 6 0 10 -8 10 -17 0 -10 5 -25 11 -33 8 -11
9 -8 4 14 -5 26 -5 27 10 12 19 -19 16 -51 -5 -51 -8 0 -26 31 -45 77 -17 42
-34 80 -38 84 -4 4 -2 13 4 20 13 16 4 35 -14 29 -7 -2 -22 18 -36 48 -14 28
-47 74 -75 102 -57 57 -84 115 -61 127 9 6 12 21 10 50 -4 40 5 57 29 58 4 0
24 -16 43 -35z m240 13 c-21 -6 -36 -15 -34 -22 2 -6 1 -30 -2 -53 -5 -34 -9
-41 -20 -33 -12 7 -13 11 -1 25 11 13 10 18 -4 28 -35 26 13 65 79 65 11 0 3
-5 -18 -10z m1 -182 c-11 -14 -10 -50 3 -63 6 -6 9 -23 6 -39 l-4 -29 -8 33
c-4 18 -14 32 -22 32 -11 0 -13 7 -9 25 5 18 2 25 -8 25 -21 0 -27 15 -17 42
8 20 10 21 16 6 4 -10 14 -18 21 -18 12 0 12 4 4 20 -6 11 -8 25 -4 32 4 6 12
-3 19 -23 6 -19 8 -38 3 -43z m-1738 -66 c0 -5 -4 -10 -9 -10 -6 0 -13 5 -16
10 -3 6 1 10 9 10 9 0 16 -4 16 -10z m2670 -40 c0 -5 -7 -10 -16 -10 -8 0 -12
5 -9 10 3 6 10 10 16 10 5 0 9 -4 9 -10z m-2673 -52 c-3 -8 -6 -5 -6 6 -1 11
2 17 5 13 3 -3 4 -12 1 -19z m2653 2 c12 -7 10 -9 -8 -7 -12 0 -22 5 -22 9 0
11 12 10 30 -2z m10 -49 c0 -5 -9 -7 -20 -4 -11 3 -20 7 -20 9 0 2 9 4 20 4
11 0 20 -4 20 -9z m-652 -26 c-3 -3 -9 2 -12 12 -6 14 -5 15 5 6 7 -7 10 -15
7 -18z m748 -22 c-10 -10 -19 5 -10 18 6 11 8 11 12 0 2 -7 1 -15 -2 -18z m71
5 c-3 -8 -6 -5 -6 6 -1 11 2 17 5 13 3 -3 4 -12 1 -19z m-219 6 c36 -10 25
-20 -18 -16 -22 2 -37 8 -34 13 6 10 20 11 52 3z m-921 -61 c-3 -10 -5 -4 -5
12 0 17 2 24 5 18 2 -7 2 -21 0 -30z m-3433 18 c3 -5 -1 -14 -8 -20 -12 -10
-13 -8 -9 8 6 23 9 25 17 12z m4326 -17 c0 -2 -7 -4 -15 -4 -8 0 -15 4 -15 10
0 5 7 7 15 4 8 -4 15 -8 15 -10z m55 6 c-3 -5 -10 -10 -16 -10 -5 0 -9 5 -9
10 0 6 7 10 16 10 8 0 12 -4 9 -10z m82 -4 c-8 -9 -24 -12 -43 -8 l-29 6 35 7
c19 3 39 7 43 8 5 0 2 -5 -6 -13z m-4473 -51 c-4 -16 -2 -25 6 -25 7 0 6 -5
-4 -15 -18 -18 -27 -19 -22 -2 3 6 7 24 10 40 4 15 9 27 11 27 3 0 3 -11 -1
-25z m4526 16 c0 -12 -20 -25 -27 -18 -7 7 6 27 18 27 5 0 9 -4 9 -9z m-210
-12 c0 -5 -14 -9 -31 -9 -16 0 -28 3 -26 8 7 10 57 12 57 1z m60 1 c0 -5 -4
-10 -10 -10 -5 0 -10 5 -10 10 0 6 5 10 10 10 6 0 10 -4 10 -10z m100 6 c0 -3
-4 -8 -10 -11 -5 -3 -10 -1 -10 4 0 6 5 11 10 11 6 0 10 -2 10 -4z m-47 -40
c8 -20 -26 -26 -43 -8 -13 14 -12 15 3 9 9 -3 17 -2 17 3 0 15 17 12 23 -4z
m67 7 c0 -5 -5 -15 -10 -23 -9 -13 -11 -13 -20 0 -8 13 -1 21 28 29 1 1 2 -2
2 -6z m-1000 -113 c-13 -32 1 -70 25 -70 8 0 15 -7 15 -15 0 -9 -6 -12 -15 -9
-11 4 -15 0 -15 -16 0 -22 0 -22 -21 4 -11 14 -18 30 -15 35 4 5 0 15 -7 23
-7 7 -17 37 -23 66 -8 42 -8 52 3 52 8 0 13 -13 14 -32 0 -18 4 -42 9 -53 7
-16 9 -11 9 22 1 23 6 45 11 48 6 3 11 18 12 33 1 15 3 7 5 -17 3 -24 -1 -56
-7 -71z m805 90 c-3 -5 -17 -10 -31 -10 -13 0 -24 5 -24 10 0 6 14 10 31 10
17 0 28 -4 24 -10z m52 4 c-3 -3 -12 -4 -19 -1 -8 3 -5 6 6 6 11 1 17 -2 13
-5z m-4352 -96 c2 -41 0 -54 -5 -38 -9 29 -13 116 -4 108 3 -4 7 -35 9 -70z
m35 68 c0 -3 -4 -8 -10 -11 -5 -3 -10 -1 -10 4 0 6 5 11 10 11 6 0 10 -2 10
-4z m4230 -16 c0 -5 -7 -10 -15 -10 -8 0 -15 5 -15 10 0 6 7 10 15 10 8 0 15
-4 15 -10z m75 0 c3 -5 -1 -10 -10 -10 -9 0 -13 5 -10 10 3 6 8 10 10 10 2 0
7 -4 10 -10z m50 1 c7 -12 -12 -24 -25 -16 -11 7 -4 25 10 25 5 0 11 -4 15 -9z
m65 -3 c0 -12 -18 -18 -34 -12 -24 9 -19 19 9 19 14 0 25 -3 25 -7z m-1850
-18 c0 -5 -5 -10 -11 -10 -5 0 -7 5 -4 10 3 6 8 10 11 10 2 0 4 -4 4 -10z
m-2520 -20 c0 -12 -60 -18 -67 -7 -3 5 0 13 6 17 15 8 61 1 61 -10z m4295 0
c-3 -5 -13 -10 -21 -10 -8 0 -12 5 -9 10 3 6 13 10 21 10 8 0 12 -4 9 -10z
m42 -13 c-6 -13 -16 -24 -22 -24 -15 0 -65 -33 -65 -44 0 -18 22 -19 27 -1 2
11 13 22 24 25 20 5 26 -7 9 -18 -5 -3 -17 -21 -26 -40 -10 -22 -23 -35 -35
-35 -11 0 -18 -3 -17 -7 4 -14 -23 -54 -33 -48 -5 4 -9 2 -9 -4 0 -5 5 -11 12
-13 7 -3 9 -12 4 -23 -6 -18 -8 -18 -19 5 -7 14 -19 25 -27 25 -8 0 -19 6 -23
13 -5 8 -17 10 -30 7 -19 -5 -20 -5 -5 5 13 8 23 8 38 0 15 -8 27 -7 52 7 l33
17 -25 7 c-15 4 -18 7 -8 8 25 1 68 23 68 33 0 5 -9 6 -20 3 -20 -6 -28 9 -10
20 6 3 10 25 11 48 1 33 3 37 8 18 6 -21 8 -22 21 -9 8 8 23 17 33 21 9 3 17
11 17 17 0 5 6 10 14 10 11 0 12 -5 3 -23z m-189 4 c10 -6 9 -10 -7 -14 -14
-3 -21 0 -21 9 0 16 9 18 28 5z m-707 -42 l-10 -24 0 26 c-1 14 2 29 6 33 12
12 14 -9 4 -35z m-3446 1 c-3 -5 -10 -10 -16 -10 -5 0 -9 5 -9 10 0 6 7 10 16
10 8 0 12 -4 9 -10z m4130 -1 c10 -14 1 -21 -19 -13 -9 3 -13 10 -10 15 7 12
21 11 29 -2z m88 -6 c-7 -2 -19 -2 -25 0 -7 3 -2 5 12 5 14 0 19 -2 13 -5z
m-4215 -37 c3 -14 -2 -17 -24 -14 -15 2 -29 8 -31 14 -2 7 6 10 24 7 23 -4 25
-2 13 7 -13 10 -13 11 0 7 8 -2 17 -11 18 -21z m42 10 c0 -8 -7 -16 -15 -20
-17 -6 -18 -4 -9 18 8 20 24 21 24 2z m4165 -16 c4 -6 -7 -10 -27 -9 -31 1
-32 1 -8 9 14 4 26 8 27 9 1 1 5 -3 8 -9z m-1735 -10 c0 -5 -4 -10 -10 -10 -5
0 -10 5 -10 10 0 6 5 10 10 10 6 0 10 -4 10 -10z m40 0 c0 -5 -5 -10 -11 -10
-5 0 -7 5 -4 10 3 6 8 10 11 10 2 0 4 -4 4 -10z m893 -31 c4 -16 3 -18 -9 -8
-16 13 -19 29 -5 29 5 0 11 -9 14 -21z m-3443 0 c0 -8 5 -8 15 1 10 9 15 9 15
1 0 -6 -3 -11 -7 -12 -5 0 -16 -2 -25 -4 -10 -2 -18 3 -18 11 0 8 5 14 10 14
6 0 10 -5 10 -11z m87 -3 c0 -8 -6 -12 -14 -9 -7 3 -10 9 -7 14 8 14 21 11 21
-5z m4133 10 c0 -2 -7 -6 -15 -10 -8 -3 -15 -1 -15 4 0 6 7 10 15 10 8 0 15
-2 15 -4z m-50 -16 c11 -7 8 -8 -13 -6 -15 1 -30 6 -34 9 -10 11 30 8 47 -3z
m40 -20 c0 -5 -4 -10 -10 -10 -5 0 -10 5 -10 10 0 6 5 10 10 10 6 0 10 -4 10
-10z m-4200 -35 c0 -5 -5 -3 -10 5 -5 8 -10 20 -10 25 0 6 5 3 10 -5 5 -8 10
-19 10 -25z m17 13 c-3 -8 -6 -5 -6 6 -1 11 2 17 5 13 3 -3 4 -12 1 -19z m58
1 c-8 -12 -45 -12 -45 0 0 10 30 20 43 14 4 -3 5 -9 2 -14z m3362 -41 c-2 -13
-4 -5 -4 17 -1 22 1 32 4 23 2 -10 2 -28 0 -40z m673 32 c0 -5 -11 -10 -25
-10 -14 0 -25 5 -25 10 0 6 11 10 25 10 14 0 25 -4 25 -10z m-1570 -10 c0 -5
-7 -10 -15 -10 -8 0 -15 5 -15 10 0 6 7 10 15 10 8 0 15 -4 15 -10z m-2407
-31 c5 -4 5 -9 -2 -13 -6 -4 -11 -2 -11 5 0 8 -10 9 -31 5 -22 -4 -29 -2 -26
7 2 6 14 11 26 10 11 -2 21 3 22 10 0 7 3 6 6 -3 3 -8 10 -18 16 -21z m4027
25 c0 -3 -5 -14 -10 -25 -16 -28 -30 -23 -17 6 11 22 27 34 27 19z m-4122 -22
c2 -7 -1 -12 -7 -12 -6 0 -8 -7 -4 -16 4 -11 13 -14 29 -10 16 4 24 2 25 -6 1
-7 3 -23 4 -35 1 -12 -4 -24 -11 -27 -18 -7 -29 13 -15 27 17 17 13 30 -9 24
-11 -3 -20 -4 -20 -2 0 1 -7 18 -15 38 -13 32 -13 35 2 33 9 -2 19 -8 21 -14z
m1986 -7 c4 -14 11 -23 16 -20 6 3 10 1 10 -4 0 -19 -19 -12 -31 12 -7 12 -17
25 -23 29 -7 5 -5 8 5 8 10 0 20 -11 23 -25z m2173 -7 c-3 -8 -6 -5 -6 6 -1
11 2 17 5 13 3 -3 4 -12 1 -19z m-91 3 c-10 -16 -46 -20 -46 -5 0 8 10 14 26
14 14 0 23 -4 20 -9z m-3990 -39 c-10 -10 -29 15 -21 28 6 9 10 8 17 -4 6 -10
7 -20 4 -24z m44 8 c0 -5 -5 -10 -11 -10 -5 0 -7 5 -4 10 3 6 8 10 11 10 2 0
4 -4 4 -10z m3963 -2 c4 -10 8 -9 16 2 5 8 13 11 17 7 11 -11 -18 -39 -34 -32
-11 4 -13 -1 -8 -20 5 -20 2 -26 -19 -31 -14 -3 -34 -4 -45 -1 -11 3 -20 0
-20 -6 0 -7 -4 -6 -9 2 -6 9 -16 11 -27 7 -15 -6 -16 -5 -7 5 7 7 30 12 52 11
30 -1 44 3 55 19 8 12 12 28 9 35 -6 17 13 19 20 2z m-43 -19 c0 -10 -12 -11
-34 -3 -25 10 -19 22 9 16 14 -2 25 -8 25 -13z m115 -5 c-19 -19 -24 -18 -18
5 3 12 11 17 19 14 11 -4 11 -7 -1 -19z m-4081 -9 c-12 -9 -14 -14 -6 -15 7 0
10 -5 6 -11 -4 -8 -9 -7 -15 2 -9 14 7 39 24 39 6 0 2 -7 -9 -15z m46 -10 c0
-8 -4 -15 -10 -15 -5 0 -10 7 -10 15 0 8 5 15 10 15 6 0 10 -7 10 -15z m3516
-32 c-10 -10 -19 5 -10 18 6 11 8 11 12 0 2 -7 1 -15 -2 -18z m-3556 -15 c0
-4 -5 -8 -12 -8 -7 0 -3 -10 9 -21 20 -20 23 -21 38 -6 8 9 22 14 31 10 24 -9
-11 -42 -39 -35 -22 5 -68 52 -61 63 5 9 34 7 34 -3z m3890 -21 c0 -5 -6 -7
-14 -4 -8 3 -17 1 -19 -6 -2 -7 -8 -9 -12 -5 -4 4 -4 11 -1 17 8 12 46 10 46
-2z m124 2 c-5 -9 -84 -20 -95 -14 -20 13 4 24 50 22 27 -1 47 -5 45 -8z
m-3963 -76 c13 -16 12 -17 -3 -4 -10 7 -18 15 -18 17 0 8 8 3 21 -13z m74 -53
c3 -5 1 -10 -4 -10 -6 0 -11 5 -11 10 0 6 2 10 4 10 3 0 8 -4 11 -10z m75 -56
c0 -2 -9 0 -20 6 -11 6 -20 13 -20 16 0 2 9 0 20 -6 11 -6 20 -13 20 -16z m60
22 c0 -2 -7 -7 -16 -10 -8 -3 -12 -2 -9 4 6 10 25 14 25 6z m2800 -6 c0 -5 -4
-10 -10 -10 -5 0 -10 5 -10 10 0 6 5 10 10 10 6 0 10 -4 10 -10z m-2830 -30
c0 -5 -2 -10 -4 -10 -3 0 -8 5 -11 10 -3 6 -1 10 4 10 6 0 11 -4 11 -10z m35
-10 c3 -5 2 -10 -4 -10 -5 0 -13 5 -16 10 -3 6 -2 10 4 10 5 0 13 -4 16 -10z
m2885 0 c0 -5 -4 -10 -10 -10 -5 0 -10 5 -10 10 0 6 5 10 10 10 6 0 10 -4 10
-10z m-2775 -49 c-3 -6 3 -14 12 -20 10 -6 13 -11 7 -11 -15 0 -36 25 -27 33
10 10 15 8 8 -2z m2739 -59 c3 -5 -1 -9 -9 -9 -8 0 -12 4 -9 9 3 4 7 8 9 8 2
0 6 -4 9 -8z m-2610 -23 c-2 -4 14 -14 35 -23 22 -8 42 -20 46 -26 8 -14 9
-14 -69 24 -58 28 -64 33 -39 32 17 0 29 -4 27 -7z m136 -49 c0 -5 -2 -10 -4
-10 -3 0 -8 5 -11 10 -3 6 -1 10 4 10 6 0 11 -4 11 -10z m-10 -20 c8 -5 11
-10 5 -10 -5 0 -17 5 -25 10 -8 5 -10 10 -5 10 6 0 17 -5 25 -10z m230 -10 c0
-5 -4 -10 -10 -10 -5 0 -10 5 -10 10 0 6 5 10 10 10 6 0 10 -4 10 -10z m-165
-10 c-3 -5 -14 -10 -23 -9 -14 0 -13 2 3 9 27 11 27 11 20 0z m1228 -10 c3
-11 1 -18 -4 -14 -5 3 -9 12 -9 20 0 20 7 17 13 -6z m197 -34 c0 -3 -4 -8 -10
-11 -5 -3 -10 -1 -10 4 0 6 5 11 10 11 6 0 10 -2 10 -4z m-1034 -36 c9 0 12
-4 9 -10 -3 -5 -19 -10 -35 -10 -23 0 -28 4 -23 16 3 8 12 13 20 10 8 -3 21
-6 29 -6z m44 -15 c11 -13 10 -14 -4 -9 -9 3 -16 10 -16 15 0 13 6 11 20 -6z
m130 -35 c0 -5 -9 -10 -19 -10 -11 0 -23 5 -26 10 -4 6 5 10 19 10 14 0 26 -4
26 -10z m-217 -7 c-7 -2 -19 -2 -25 0 -7 3 -2 5 12 5 14 0 19 -2 13 -5z m430
-30 c-7 -2 -19 -2 -25 0 -7 3 -2 5 12 5 14 0 19 -2 13 -5z m-113 -63 c11 -8 7
-9 -15 -4 -37 8 -45 14 -19 14 10 0 26 -5 34 -10z m-126 -75 c-7 -16 -24 -21
-24 -6 0 8 7 13 27 20 1 1 0 -6 -3 -14z m993 -57 c-3 -8 -6 -5 -6 6 -1 11 2
17 5 13 3 -3 4 -12 1 -19z m-760 6 c-3 -3 -12 -4 -19 -1 -8 3 -5 6 6 6 11 1
17 -2 13 -5z m1117 -13 c3 -4 -4 -17 -15 -27 -21 -19 -21 -18 -8 9 13 30 15
31 23 18z m-930 -90 c-10 -11 -79 15 -82 31 -3 14 3 16 32 11 30 -5 36 -3 37
13 1 11 5 3 9 -16 5 -19 7 -37 4 -39z m36 65 c0 -3 -4 -8 -10 -11 -5 -3 -10
-1 -10 4 0 6 5 11 10 11 6 0 10 -2 10 -4z m840 -15 c0 -5 -7 -11 -14 -14 -10
-4 -13 -1 -9 9 6 15 23 19 23 5z m-810 -22 c5 9 10 10 14 2 7 -10 -31 -31 -55
-31 -11 0 -11 3 -3 24 5 13 9 14 21 4 11 -9 16 -9 23 1z m696 -39 c0 -12 -4
-16 -9 -11 -5 5 -6 14 -3 20 10 15 12 14 12 -9z m-601 -10 c4 -6 26 -20 51
-31 24 -12 44 -25 44 -29 0 -5 15 -12 33 -15 35 -8 57 -22 57 -37 0 -6 -7 -4
-16 3 -9 8 -22 14 -28 15 -30 3 -36 5 -48 17 -8 6 -24 18 -36 25 -21 11 -22
10 -23 -20 -1 -22 -3 -26 -6 -13 -3 11 -10 26 -17 34 -9 12 -8 13 3 6 10 -5
12 -4 7 3 -4 7 -20 12 -36 12 -16 0 -32 5 -36 12 -5 8 0 9 15 5 17 -4 21 -2
17 9 -6 16 10 19 19 4z m643 -35 c-3 -3 -9 2 -12 12 -6 14 -5 15 5 6 7 -7 10
-15 7 -18z m-928 -27 c0 -5 -7 -8 -16 -8 -10 0 -14 6 -10 15 3 8 1 15 -5 15
-6 0 -7 5 -4 11 7 10 34 -16 35 -33z m243 10 c-2 -4 -26 -7 -52 -5 -27 1 -47
5 -44 10 2 4 26 6 53 5 26 -2 46 -6 43 -10z m-133 -8 c-8 -5 -35 -9 -60 -8
l-45 1 45 7 c73 11 78 11 60 0z m84 -35 c3 -8 1 -15 -4 -15 -6 0 -10 7 -10 15
0 8 2 15 4 15 2 0 6 -7 10 -15z m86 5 c0 -5 -15 -10 -32 -9 -28 0 -30 2 -13 9
28 12 45 12 45 0z m-246 -69 c3 -4 -8 -8 -24 -7 -17 1 -30 4 -30 9 0 10 48 9
54 -2z m1113 -53 c-3 -8 -6 -5 -6 6 -1 11 2 17 5 13 3 -3 4 -12 1 -19z m-1087
-28 c0 -5 -5 -10 -11 -10 -5 0 -7 5 -4 10 3 6 8 10 11 10 2 0 4 -4 4 -10z m47
-1 c-14 -8 -22 -8 -30 0 -8 8 -3 11 19 11 25 -1 27 -2 11 -11z m-2 -33 c15 6
29 -12 16 -20 -12 -8 -63 19 -54 28 4 3 11 2 16 -3 5 -5 15 -7 22 -5z m308
-53 c-7 -2 -19 -2 -25 0 -7 3 -2 5 12 5 14 0 19 -2 13 -5z m247 -19 c0 -15
-28 -32 -37 -23 -6 6 -14 4 -23 -6 -7 -8 -17 -15 -23 -15 -5 0 3 11 19 25 26
22 64 34 64 19z m0 -63 c0 -5 -7 -12 -16 -15 -14 -5 -15 -4 -4 9 14 17 20 19
20 6z m-58 -23 c-7 -7 -12 -8 -12 -2 0 6 3 14 7 17 3 4 9 5 12 2 2 -3 -1 -11
-7 -17z m53 -40 c0 -22 -5 -34 -16 -36 -26 -5 -31 26 -7 48 12 11 22 20 22 20
1 0 1 -15 1 -32z m-688 -14 c-3 -3 -12 -4 -19 -1 -8 3 -5 6 6 6 11 1 17 -2 13
-5z m253 -34 c0 -6 -11 -8 -27 -4 -40 10 -41 14 -5 14 18 0 32 -5 32 -10z m30
-20 c0 -5 -4 -10 -10 -10 -5 0 -10 5 -10 10 0 6 5 10 10 10 6 0 10 -4 10 -10z
m410 -15 c0 -8 -4 -15 -9 -15 -13 0 -22 16 -14 24 11 11 23 6 23 -9z m-80
-169 c0 -3 -4 -8 -10 -11 -5 -3 -10 -1 -10 4 0 6 5 11 10 11 6 0 10 -2 10 -4z"/>
<path d="M7685 7640 c-3 -5 -1 -10 4 -10 6 0 11 5 11 10 0 6 -2 10 -4 10 -3 0
-8 -4 -11 -10z"/>
<path d="M8207 7583 c-4 -3 -7 -11 -7 -17 0 -6 5 -5 12 2 6 6 9 14 7 17 -3 3
-9 2 -12 -2z"/>
<path d="M4570 7562 c0 -10 9 -29 20 -42 11 -13 20 -34 20 -48 l0 -26 21 23
c16 17 19 25 9 31 -6 4 -15 23 -19 41 -5 25 -13 35 -29 37 -16 3 -22 -2 -22
-16z"/>
<path d="M4530 7534 c0 -8 5 -12 10 -9 6 3 10 10 10 16 0 5 -4 9 -10 9 -5 0
-10 -7 -10 -16z"/>
<path d="M4650 7465 c0 -5 5 -17 10 -25 5 -8 10 -10 10 -5 0 6 -5 17 -10 25
-5 8 -10 11 -10 5z"/>
<path d="M4405 7440 c-3 -5 1 -10 10 -10 9 0 13 5 10 10 -3 6 -8 10 -10 10 -2
0 -7 -4 -10 -10z"/>
<path d="M4662 7393 c2 -10 11 -19 21 -21 16 -3 17 -1 5 17 -16 25 -31 27 -26
4z"/>
<path d="M8157 7393 c-4 -3 -7 -11 -7 -17 0 -6 5 -5 12 2 6 6 9 14 7 17 -3 3
-9 2 -12 -2z"/>
<path d="M4680 7356 c0 -2 7 -6 15 -10 8 -3 15 -1 15 4 0 6 -7 10 -15 10 -8 0
-15 -2 -15 -4z"/>
<path d="M8130 7328 c-7 -18 -16 -37 -18 -43 -3 -5 2 -4 11 4 25 20 49 71 33
71 -6 0 -18 -15 -26 -32z"/>
<path d="M4694 7319 c-14 -22 38 -46 55 -25 7 9 2 15 -19 23 -18 7 -32 7 -36
2z"/>
<path d="M4720 7264 c0 -4 8 -13 18 -20 10 -9 13 -17 7 -21 -13 -11 -17 -53
-5 -53 6 0 10 12 10 27 0 14 3 23 7 19 8 -7 12 -27 16 -72 1 -17 8 -38 14 -45
9 -11 6 -14 -14 -15 -32 -2 -37 -8 -29 -40 l7 -27 30 29 29 28 0 -26 c0 -14 7
-29 16 -32 22 -9 24 -8 24 9 0 8 -4 15 -10 15 -5 0 -10 6 -10 14 0 7 -7 27
-15 42 -8 16 -15 37 -15 46 0 9 -5 20 -11 24 -6 3 -9 15 -6 25 3 11 -2 23 -11
28 -9 5 -14 13 -10 17 10 9 -11 34 -28 34 -8 0 -14 -3 -14 -6z m60 -204 c0 -5
-7 -10 -16 -10 -8 0 -12 5 -9 10 3 6 10 10 16 10 5 0 9 -4 9 -10z"/>
<path d="M8100 7235 c0 -8 5 -15 10 -15 6 0 10 7 10 15 0 8 -4 15 -10 15 -5 0
-10 -7 -10 -15z"/>
<path d="M8081 7189 c-7 -12 -10 -24 -7 -27 3 -3 6 0 6 6 0 6 9 9 20 7 23 -4
26 7 7 23 -10 8 -16 6 -26 -9z"/>
<path d="M2610 7183 c0 -4 5 -15 10 -23 8 -13 10 -13 10 2 0 9 -4 20 -10 23
-5 3 -10 3 -10 -2z"/>
<path d="M8081 7151 c-7 -5 -23 -7 -35 -5 -20 4 -20 4 -1 -4 11 -5 20 -17 20
-27 0 -10 6 -20 13 -23 7 -2 12 2 11 9 -2 8 2 24 9 37 13 23 7 28 -17 13z"/>
<path d="M4734 7134 c5 -12 2 -15 -9 -10 -9 3 -13 2 -10 -4 3 -6 14 -10 25
-10 13 0 17 5 13 20 -3 11 -10 20 -15 20 -6 0 -7 -7 -4 -16z"/>
<path d="M8001 7134 c0 -11 3 -14 6 -6 3 7 2 16 -1 19 -3 4 -6 -2 -5 -13z"/>
<path d="M8040 7011 c0 -7 -4 -10 -9 -6 -11 6 -18 -17 -19 -60 -1 -29 0 -29 9
-7 5 13 6 28 3 34 -3 5 2 15 12 23 11 7 16 17 11 21 -4 4 -7 2 -7 -5z"/>
<path d="M4844 6986 c-4 -10 -2 -21 5 -26 9 -5 6 -9 -8 -13 -12 -3 -21 -10
-21 -16 0 -12 23 -15 34 -4 11 11 45 13 51 3 8 -13 35 -13 35 0 0 6 -6 10 -14
10 -7 0 -28 14 -45 32 -27 27 -31 29 -37 14z"/>
<path d="M4770 6980 c0 -5 5 -10 10 -10 6 0 10 5 10 10 0 6 -4 10 -10 10 -5 0
-10 -4 -10 -10z"/>
<path d="M7895 6950 c-3 -5 -1 -10 4 -10 6 0 11 5 11 10 0 6 -2 10 -4 10 -3 0
-8 -4 -11 -10z"/>
<path d="M4954 6918 c3 -10 1 -20 -4 -23 -16 -10 -11 -28 5 -21 20 7 20 -18 0
-34 -19 -15 -14 -23 9 -14 9 3 16 17 16 30 0 18 6 24 21 24 11 0 17 5 14 10
-3 6 -15 10 -25 10 -10 0 -24 8 -30 18 -11 16 -11 16 -6 0z"/>
<path d="M4900 6889 c0 -6 -6 -9 -14 -6 -8 3 -17 0 -19 -8 -8 -18 4 -27 19
-14 7 6 14 6 18 1 3 -6 -5 -13 -19 -16 -14 -4 -25 -11 -25 -17 0 -6 7 -8 16
-5 9 3 22 6 30 6 9 0 14 11 14 35 0 19 -4 35 -10 35 -5 0 -10 -5 -10 -11z"/>
<path d="M7855 6850 c-3 -5 -1 -10 4 -10 6 0 11 5 11 10 0 6 -2 10 -4 10 -3 0
-8 -4 -11 -10z"/>
<path d="M4893 6803 c-34 -7 -28 -20 7 -15 16 2 27 8 24 13 -3 5 -6 8 -7 8 -1
-1 -12 -4 -24 -6z"/>
<path d="M7785 6800 c28 -12 37 -12 30 0 -3 6 -16 10 -28 9 -21 0 -21 -1 -2
-9z"/>
<path d="M7828 6763 c7 -3 16 -2 19 1 4 3 -2 6 -13 5 -11 0 -14 -3 -6 -6z"/>
<path d="M7906 6762 c-3 -5 1 -9 9 -9 8 0 15 4 15 9 0 4 -4 8 -9 8 -6 0 -12
-4 -15 -8z"/>
<path d="M7698 6595 c-3 -14 -1 -25 3 -25 5 0 9 11 9 25 0 14 -2 25 -4 25 -2
0 -6 -11 -8 -25z"/>
<path d="M7655 6560 c-3 -5 -2 -10 4 -10 5 0 13 5 16 10 3 6 2 10 -4 10 -5 0
-13 -4 -16 -10z"/>
<path d="M7420 6550 c0 -5 5 -10 11 -10 5 0 7 5 4 10 -3 6 -8 10 -11 10 -2 0
-4 -4 -4 -10z"/>
<path d="M7640 6515 c-18 -21 -5 -45 25 -45 14 0 27 1 28 3 2 1 11 -4 20 -12
15 -11 17 -11 17 2 0 19 -27 30 -34 14 -4 -7 -4 3 -1 21 4 28 2 32 -19 32 -13
0 -29 -7 -36 -15z m35 -24 c-3 -6 -14 -11 -23 -11 -13 0 -13 2 4 14 21 15 30
14 19 -3z"/>
<path d="M7711 6514 c0 -11 3 -14 6 -6 3 7 2 16 -1 19 -3 4 -6 -2 -5 -13z"/>
<path d="M4680 6510 c0 -5 6 -10 14 -10 8 0 18 5 21 10 3 6 -3 10 -14 10 -12
0 -21 -4 -21 -10z"/>
<path d="M7398 6503 c6 -2 18 -2 25 0 6 3 1 5 -13 5 -14 0 -19 -2 -12 -5z"/>
<path d="M7378 6453 c6 -2 18 -2 25 0 6 3 1 5 -13 5 -14 0 -19 -2 -12 -5z"/>
<path d="M7587 6434 c-15 -20 -15 -24 -3 -24 8 0 18 9 21 21 10 29 3 31 -18 3z"/>
<path d="M7664 6438 c-4 -6 -1 -14 6 -18 14 -9 40 -2 40 10 0 12 -39 19 -46 8z"/>
<path d="M7730 6430 c0 -5 5 -12 11 -15 7 -5 6 -12 -4 -23 -19 -22 -33 -67
-18 -58 6 4 11 17 12 29 0 12 3 16 6 9 7 -18 -34 -125 -58 -151 -10 -11 -19
-24 -19 -28 0 -11 -40 -86 -49 -93 -4 -3 -18 -23 -31 -44 -21 -34 -25 -37 -31
-20 -4 10 -8 13 -8 6 -1 -7 -5 -11 -9 -8 -5 3 -9 -1 -9 -9 0 -35 89 -4 129 44
39 45 42 38 8 -20 -17 -28 -28 -55 -25 -60 4 -5 -1 -9 -9 -9 -8 0 -18 -10 -22
-22 -4 -13 -16 -29 -26 -37 -12 -8 -18 -21 -15 -31 3 -12 -2 -20 -14 -23 -11
-3 -19 -12 -19 -20 0 -8 -20 -27 -45 -43 -25 -15 -45 -34 -45 -41 0 -9 7 -7
22 7 24 22 38 26 38 10 0 -5 -5 -10 -11 -10 -6 0 -18 -7 -27 -16 -14 -15 -17
-15 -27 -1 -8 11 -19 14 -36 10 l-24 -7 25 -7 c22 -6 21 -7 -10 -8 -20 -1 -46
-8 -58 -17 -12 -8 -30 -14 -40 -13 -33 3 -44 -1 -39 -15 4 -11 1 -13 -10 -9
-11 4 -14 2 -9 -5 4 -7 1 -12 -8 -12 -26 0 -30 -1 -43 -12 -14 -11 -36 -1 -28
13 8 12 8 12 -40 -6 -29 -11 -33 -15 -15 -14 14 1 36 -3 50 -9 15 -6 19 -11 9
-11 -9 -1 -24 -10 -33 -20 -10 -11 -25 -22 -35 -24 -9 -2 -3 -3 13 -2 27 2 28
1 10 -12 -10 -8 -31 -13 -46 -10 -16 2 -28 0 -28 -5 0 -4 -9 -8 -21 -8 -11 0
-32 -9 -46 -20 -42 -33 -50 -23 -11 14 20 19 56 40 79 46 30 8 38 14 29 20 -8
5 -26 7 -40 6 -14 -2 -17 -1 -7 1 19 5 23 19 5 25 -7 3 -2 14 13 32 17 19 30
25 46 21 12 -3 24 -1 27 4 6 9 -43 20 -62 13 -7 -2 -12 -10 -12 -18 0 -7 -6
-11 -14 -8 -7 3 -20 -2 -29 -10 -9 -9 -20 -16 -26 -16 -15 0 -14 -17 2 -23 6
-2 8 -8 4 -13 -7 -8 -22 7 -30 30 -4 11 -47 -11 -47 -25 0 -6 -7 -17 -15 -25
-17 -17 -21 -39 -5 -29 5 3 27 3 47 -1 l38 -7 -67 -16 c-36 -9 -70 -19 -74
-23 -4 -5 -22 -8 -41 -8 -30 0 -33 -3 -33 -30 0 -16 -5 -30 -11 -30 -6 0 -17
-7 -25 -15 -18 -17 -38 -20 -28 -4 3 6 -5 4 -19 -6 -25 -16 -45 -7 -32 15 11
18 -11 10 -30 -10 -10 -11 -28 -20 -39 -20 -20 1 -20 1 -2 15 10 8 23 12 29 8
6 -3 7 -1 3 5 -4 7 -25 12 -47 12 -24 0 -38 4 -34 10 3 6 24 10 46 10 28 0 39
4 39 15 0 18 -4 19 -31 3 -17 -10 -23 -10 -26 0 -3 6 -12 12 -21 12 -12 0 -9
7 13 26 17 14 23 22 15 18 -8 -4 -22 -13 -30 -20 -8 -7 -43 -28 -77 -48 l-63
-35 17 32 c16 31 15 31 -2 17 -17 -14 -18 -13 -12 2 4 12 2 15 -9 11 -7 -3
-14 -9 -14 -15 0 -5 -6 -8 -12 -7 -7 1 -24 1 -37 0 -19 -1 -21 -4 -12 -15 9
-11 8 -15 -6 -22 -10 -4 -27 -8 -37 -8 -11 -1 -21 -7 -24 -15 -3 -9 0 -11 8
-6 10 6 12 4 7 -9 -4 -10 -7 -20 -7 -22 0 -2 -9 -4 -19 -4 -11 0 -21 -7 -23
-16 -2 -11 -15 -18 -36 -20 l-33 -4 28 25 c15 13 23 25 17 25 -6 0 -21 -11
-34 -25 -13 -14 -31 -25 -41 -25 -21 0 -34 -31 -17 -42 10 -6 10 -8 -2 -8 -13
0 -13 -2 0 -9 8 -6 18 -7 22 -5 4 3 8 0 8 -7 0 -6 -8 -9 -20 -6 -11 3 -18 0
-17 -7 1 -6 -9 -11 -23 -12 -43 -1 -48 -3 -55 -24 -3 -11 -15 -20 -26 -20 -10
0 -19 -5 -19 -11 0 -7 12 -9 32 -7 l32 5 -23 -18 c-12 -10 -29 -15 -36 -12 -8
3 -15 0 -15 -7 0 -7 -6 -10 -14 -7 -19 8 -28 -3 -15 -19 12 -15 2 -18 -86 -29
-27 -4 -56 -12 -63 -17 -7 -6 -25 -11 -40 -12 -21 -1 -28 -6 -30 -26 l-3 -25
20 25 c17 20 21 22 21 8 0 -23 16 -23 24 -1 6 15 9 15 16 3 13 -20 5 -27 -41
-34 -35 -6 -44 -3 -56 14 -20 28 -30 18 -25 -25 3 -26 8 -35 18 -31 17 6 17 1
4 -24 -9 -16 -15 -18 -36 -10 -37 14 -47 13 -36 -7 8 -14 32 -22 81 -25 9 -1
8 -5 -5 -14 -11 -7 -24 -18 -31 -24 -7 -5 -17 -10 -23 -10 -6 0 -8 -5 -5 -10
4 -6 10 -8 13 -6 4 2 43 9 87 15 113 16 173 39 159 62 -3 6 65 24 75 19 2 -1
7 3 10 8 9 13 67 42 86 42 9 0 14 4 11 9 -3 5 1 11 8 14 8 3 16 1 18 -5 3 -8
20 -7 55 5 30 10 81 17 120 16 65 -1 67 -1 38 -14 l-30 -13 30 -4 c27 -3 30
-6 27 -33 -2 -16 -11 -34 -20 -41 -13 -9 -11 -12 11 -16 23 -4 27 -2 27 18 0
13 5 24 10 24 6 0 10 -14 10 -31 0 -25 3 -29 13 -21 7 6 18 7 26 3 10 -7 10
-10 1 -16 -9 -6 -6 -13 11 -26 13 -10 18 -19 12 -20 -22 -3 -27 -4 -51 -18
-17 -9 -27 -10 -37 -1 -9 8 -15 8 -20 0 -5 -8 -11 -7 -23 2 -13 11 -15 10 -10
-9 6 -21 2 -23 -29 -23 -20 0 -32 -4 -28 -10 3 -5 -3 -10 -14 -10 -17 0 -19
-5 -15 -49 4 -46 3 -49 -21 -53 -25 -5 -40 3 -28 16 3 3 15 6 25 6 10 0 18 5
18 10 0 6 -5 10 -11 10 -5 0 -8 4 -4 9 10 17 -13 22 -29 6 -8 -8 -38 -20 -67
-25 -71 -14 -90 -13 -59 3 24 12 35 38 15 36 -5 0 -9 -7 -7 -16 2 -9 -2 -13
-10 -10 -7 2 -12 10 -10 16 1 6 -3 11 -9 11 -6 0 -8 -9 -4 -20 4 -12 2 -20 -5
-20 -7 0 -4 -7 5 -16 12 -12 33 -17 76 -16 32 0 59 -3 59 -9 0 -5 -13 -9 -29
-9 -17 0 -31 -6 -35 -16 -4 -11 -1 -14 12 -10 31 10 87 9 112 -2 24 -10 23
-11 -15 -13 -22 -1 -44 0 -50 1 -5 1 -32 2 -60 2 -43 0 -47 1 -27 10 39 19 24
24 -66 25 -85 0 -91 2 -148 38 -32 21 -63 44 -67 51 -4 8 -14 14 -20 14 -7 0
-28 13 -47 30 -41 34 -55 38 -40 11 11 -21 4 -51 -12 -51 -5 0 -8 6 -7 13 3
26 -1 47 -11 47 -14 0 -12 -27 3 -33 10 -4 10 -6 0 -6 -7 -1 -13 -8 -13 -16 0
-8 -4 -15 -10 -15 -5 0 -14 -10 -21 -21 -11 -21 -10 -22 19 -16 37 8 47 -3 27
-29 -11 -15 -16 -17 -26 -6 -20 19 -29 14 -19 -12 7 -19 5 -23 -7 -22 -21 1
-30 -63 -11 -76 10 -7 8 -8 -5 -4 -12 4 -20 -1 -27 -19 -5 -13 -24 -32 -42
-41 -31 -16 -32 -16 -52 9 -48 60 -76 101 -76 112 0 7 -7 19 -16 26 -15 12
-15 10 0 -26 9 -21 21 -45 28 -52 6 -7 8 -16 4 -20 -8 -8 -32 22 -52 67 -9 19
-18 29 -21 22 -3 -7 9 -41 25 -76 27 -58 33 -113 13 -118 -24 -6 -61 -3 -61 4
0 5 9 6 20 3 33 -10 23 12 -20 46 -40 32 -83 92 -120 165 -11 22 -19 33 -20
26 0 -21 49 -113 92 -170 27 -37 35 -53 23 -50 -9 1 -16 7 -15 11 1 5 -10 17
-24 28 -15 11 -26 26 -26 34 0 7 -6 15 -14 18 -20 8 18 -81 49 -115 13 -14 22
-28 19 -31 -2 -2 3 -10 12 -17 12 -11 20 -11 34 -3 13 9 21 9 30 0 9 -9 11 -9
8 3 -1 9 7 29 20 45 19 24 25 27 33 15 5 -8 8 -25 6 -37 -5 -30 9 -29 67 2 65
34 117 78 112 92 -3 7 4 15 15 18 10 4 19 10 19 15 0 5 13 16 28 24 16 8 28
23 29 37 4 43 37 43 83 1 36 -33 76 -63 110 -84 49 -30 150 -78 158 -75 4 1
34 -15 67 -35 74 -45 209 -85 313 -94 83 -7 227 10 251 29 12 9 13 9 7 -1 -13
-22 64 -3 100 25 17 12 40 23 51 23 24 0 48 24 38 40 -9 15 -31 12 -45 -5 -9
-11 -32 -15 -78 -15 -75 0 -74 10 1 26 l52 12 -60 1 c-63 1 -103 15 -75 26 8
3 42 9 75 14 54 8 47 9 -70 10 -83 2 -123 6 -110 11 11 5 39 9 63 9 28 1 45 6
48 16 4 8 18 15 32 15 29 0 20 15 -13 23 -18 4 -18 5 3 6 45 2 20 21 -30 22
-34 1 -42 4 -23 6 16 3 33 10 37 16 5 8 8 9 8 1 0 -17 100 -5 142 17 36 19 39
19 63 3 25 -17 28 -16 71 4 24 12 51 22 59 22 8 0 15 6 15 14 0 8 7 17 16 20
24 9 28 7 14 -9 -15 -18 3 -20 22 -2 7 7 25 18 40 24 20 9 26 17 21 29 -4 12
-3 15 5 10 7 -4 12 -16 12 -27 0 -22 18 -26 26 -4 3 8 14 17 25 20 20 7 28 55
9 55 -6 0 -10 6 -9 13 3 26 -2 37 -16 37 -8 0 -12 6 -9 14 6 17 -121 134 -156
143 -14 3 -27 9 -30 13 -3 4 -50 22 -105 40 -55 18 -104 36 -109 41 -6 5 -18
9 -27 9 -9 0 -22 6 -28 13 -13 16 3 25 97 56 58 18 72 19 175 9 62 -6 165 -10
230 -10 74 1 116 -2 112 -8 -8 -13 -3 -13 33 5 17 9 45 15 64 14 61 -3 149 12
215 37 36 14 73 24 82 23 26 -3 111 22 111 33 0 6 -11 7 -24 4 -14 -3 -28 -1
-31 5 -5 7 13 10 56 9 60 -2 137 17 165 41 6 5 14 6 17 3 3 -3 19 3 35 15 17
12 36 21 44 21 7 0 45 12 83 26 39 14 97 34 129 45 33 11 81 31 107 45 27 13
57 24 67 24 10 0 26 6 35 13 16 11 15 12 -7 12 -13 0 -22 -3 -20 -6 2 -3 -19
-4 -45 -1 -43 4 -49 2 -48 -14 1 -11 -12 -25 -35 -37 -36 -19 -39 -20 -57 -3
-17 16 -24 16 -55 5 -25 -9 -32 -16 -23 -22 7 -5 -2 -5 -23 -2 -37 8 -33 -9 5
-18 18 -4 18 -5 -2 -6 -13 0 -23 -5 -23 -10 0 -5 -25 -8 -56 -8 -41 0 -59 -5
-65 -16 -5 -8 -24 -19 -42 -22 -17 -4 -36 -10 -42 -13 -9 -6 -48 -10 -113 -11
-13 -1 -34 -8 -48 -17 -13 -9 -27 -14 -31 -11 -3 4 -13 2 -22 -2 -9 -5 -36
-12 -61 -15 -55 -7 -86 -12 -125 -20 -27 -6 -28 -6 -6 4 36 16 17 24 -24 10
-20 -6 -43 -9 -51 -6 -8 3 -22 2 -32 -4 -53 -28 -87 -39 -94 -32 -6 6 4 12 22
16 20 3 29 10 24 17 -8 13 -131 4 -149 -10 -12 -10 -185 -12 -185 -2 0 6 291
151 304 151 10 0 160 93 199 123 20 16 35 32 33 36 -3 4 9 13 25 20 29 13 42
35 14 25 -17 -7 -21 11 -5 21 6 3 8 16 5 28 -4 15 4 32 25 55 17 17 35 32 41
32 5 0 9 16 9 35 0 24 5 35 15 35 8 0 22 17 31 38 10 20 26 49 35 63 13 18 20
54 24 120 3 52 8 113 10 137 4 49 -24 168 -47 204 -15 23 -58 36 -58 18z m26
-231 c-15 -34 -15 -34 -9 -4 7 35 13 48 20 42 2 -3 -3 -20 -11 -38z m-166
-299 c0 -5 -5 -10 -11 -10 -5 0 -7 5 -4 10 3 6 8 10 11 10 2 0 4 -4 4 -10z
m-145 -200 c-3 -5 -11 -10 -16 -10 -6 0 -7 5 -4 10 3 6 11 10 16 10 6 0 7 -4
4 -10z m-518 -106 c-3 -3 -12 -4 -19 -1 -8 3 -5 6 6 6 11 1 17 -2 13 -5z
m-433 -119 c-15 -14 -39 -28 -53 -31 -14 -3 -32 -7 -39 -10 -7 -2 -10 1 -7 6
3 6 12 10 18 11 7 0 28 11 47 24 46 32 68 32 34 0z m431 15 c4 -6 -12 -9 -42
-9 -47 2 -47 2 -13 9 19 4 38 8 42 9 4 0 10 -3 13 -9z m1358 -17 c-7 -2 -19
-2 -25 0 -7 3 -2 5 12 5 14 0 19 -2 13 -5z m-1947 -18 c-4 -13 -2 -14 14 -5
16 9 18 8 14 -5 -4 -8 -14 -15 -23 -16 -10 0 -11 -2 -3 -6 21 -8 13 -23 -10
-19 -16 2 -28 -5 -40 -23 -10 -14 -18 -23 -18 -19 0 4 -9 0 -19 -9 -11 -9 -18
-21 -15 -25 6 -10 55 18 67 38 4 7 20 15 36 19 16 3 35 13 42 21 6 8 19 14 28
14 13 -1 13 -3 -3 -15 -24 -18 -18 -25 12 -14 12 5 22 15 22 24 0 8 6 15 14
15 8 0 21 3 30 6 10 4 16 1 16 -9 0 -9 -10 -19 -22 -23 -13 -4 -37 -17 -54
-30 -17 -13 -37 -24 -44 -24 -11 0 -12 -2 -1 -12 10 -11 15 -10 25 4 7 10 16
15 20 11 4 -4 11 -1 16 7 8 13 10 12 10 -2 0 -11 -8 -18 -19 -18 -11 0 -23 -4
-26 -10 -3 -5 -20 -10 -36 -10 -22 0 -32 -6 -38 -22 -5 -13 -6 -27 -3 -33 3
-5 2 -7 -3 -3 -11 11 -35 -11 -29 -26 3 -8 -11 -19 -36 -29 -39 -15 -40 -15
-40 6 -1 21 -1 21 -15 3 -8 -10 -12 -22 -10 -27 3 -4 1 -10 -5 -14 -5 -3 -10
3 -10 13 0 22 -18 32 -58 33 -27 0 -27 0 -4 10 15 5 30 5 42 -1 25 -13 28 -5
25 53 -2 40 0 47 16 47 10 0 19 6 19 13 0 6 14 21 30 32 16 11 30 26 30 33 0
6 7 12 15 12 9 0 20 11 25 25 5 14 12 25 16 25 3 0 4 -7 0 -15z m199 -25 c3
-5 1 -10 -4 -10 -6 0 -11 5 -11 10 0 6 2 10 4 10 3 0 8 -4 11 -10z m-45 -50
c0 -5 -8 -10 -17 -10 -15 0 -16 2 -3 10 19 12 20 12 20 0z m-332 -50 c-7 -11
-16 -20 -20 -20 -3 0 -14 -3 -23 -6 -13 -5 -16 -2 -14 11 2 10 15 20 28 22 14
2 27 6 30 8 11 11 10 4 -1 -15z m1719 -17 c-8 -7 -35 9 -41 23 -4 11 0 11 20
-2 13 -9 23 -18 21 -21z m63 27 c-8 -5 -24 -9 -35 -9 l-20 0 20 9 c11 5 27 9
35 9 13 1 13 0 0 -9z m-1495 -20 c-3 -5 -11 -10 -16 -10 -6 0 -7 5 -4 10 3 6
11 10 16 10 6 0 7 -4 4 -10z m-81 -34 c-3 -9 -10 -16 -15 -16 -6 0 -5 9 1 21
13 24 24 20 14 -5z m1371 4 c4 -6 -7 -10 -27 -9 -31 1 -32 1 -8 9 14 4 26 8
27 9 1 1 5 -3 8 -9z m-232 -7 c-7 -2 -19 -2 -25 0 -7 3 -2 5 12 5 14 0 19 -2
13 -5z m92 -13 c3 -6 -4 -10 -17 -10 -18 0 -20 2 -8 10 19 12 18 12 25 0z
m-380 -10 c-8 -13 -85 -13 -105 0 -11 7 4 10 48 10 40 0 61 -4 57 -10z m72 4
c-3 -3 -12 -4 -19 -1 -8 3 -5 6 6 6 11 1 17 -2 13 -5z m243 -28 c-6 -6 -43
-11 -85 -11 -43 0 -75 -4 -75 -10 0 -5 -4 -4 -9 4 -6 9 -14 10 -27 3 -29 -14
-84 -23 -84 -12 0 5 -15 7 -32 4 -18 -3 -60 -1 -93 4 l-60 10 95 2 c144 3 244
9 258 15 7 3 21 1 30 -4 11 -6 28 -4 47 4 33 14 53 9 35 -9z m-830 -30 c0 -2
-7 -7 -16 -10 -8 -3 -12 -2 -9 4 6 10 25 14 25 6z m-555 -26 c-10 -11 -21 -17
-24 -14 -3 3 3 12 13 20 28 20 32 17 11 -6z m486 -5 c-18 -8 -38 -15 -45 -15
-19 1 38 29 59 29 14 0 10 -4 -14 -14z m-551 -44 c0 -11 -26 -22 -34 -14 -12
12 -5 23 14 23 11 0 20 -4 20 -9z m-40 -26 c0 -2 -10 -10 -22 -16 -21 -11 -22
-11 -9 4 13 16 31 23 31 12z m-155 -25 c-4 -7 -18 -10 -31 -7 -13 2 -24 0 -24
-4 0 -5 -11 -9 -25 -9 -45 0 -26 18 28 27 58 10 62 10 52 -7z m92 -4 c-4 -10
-1 -13 9 -9 7 3 14 0 14 -6 0 -6 -17 -11 -37 -11 l-38 0 25 20 c30 24 34 24
27 6z m476 -23 c-7 -2 -19 -2 -25 0 -7 3 -2 5 12 5 14 0 19 -2 13 -5z m-93
-13 c-20 -13 -33 -13 -25 0 3 6 14 10 23 10 15 0 15 -2 2 -10z m-550 -10 c0
-5 -5 -10 -11 -10 -5 0 -7 5 -4 10 3 6 8 10 11 10 2 0 4 -4 4 -10z m90 -2
c-14 -5 -33 -14 -42 -19 -30 -15 -34 -9 -8 11 14 11 36 19 50 19 l25 0 -25
-11z m135 2 c-3 -5 -11 -10 -16 -10 -6 0 -7 5 -4 10 3 6 11 10 16 10 6 0 7 -4
4 -10z m-309 -67 c-7 -7 -26 7 -26 19 0 6 6 6 15 -2 9 -7 13 -15 11 -17z m107
20 c-7 -2 -19 -2 -25 0 -7 3 -2 5 12 5 14 0 19 -2 13 -5z m100 0 c-7 -2 -19
-2 -25 0 -7 3 -2 5 12 5 14 0 19 -2 13 -5z m-120 -40 c-7 -2 -19 -2 -25 0 -7
3 -2 5 12 5 14 0 19 -2 13 -5z m707 -33 c0 -5 -5 -10 -11 -10 -5 0 -7 5 -4 10
3 6 8 10 11 10 2 0 4 -4 4 -10z m74 1 c3 -5 -5 -11 -19 -13 -24 -5 -32 2 -18
15 9 10 31 9 37 -2z m-190 -98 c4 -9 1 -20 -6 -24 -9 -6 -7 -10 7 -15 11 -5
20 -3 23 4 7 21 20 13 20 -13 0 -15 -6 -25 -14 -25 -8 0 -14 5 -14 11 0 7 -27
10 -82 7 -72 -3 -83 -1 -86 15 -3 14 4 17 35 17 21 0 52 9 68 19 38 24 41 25
49 4z m176 -23 c0 -5 7 -10 15 -10 8 0 15 -5 15 -10 0 -6 -24 -8 -65 -5 -44 4
-65 2 -65 -5 0 -6 -5 -8 -10 -5 -24 15 10 32 56 28 29 -2 43 0 39 7 -3 5 -1
10 4 10 6 0 11 -4 11 -10z m-324 -55 c18 -14 18 -14 -8 -15 -18 0 -28 5 -28
15 0 19 11 19 36 0z m354 5 c0 -5 -12 -10 -26 -10 -14 0 -23 4 -19 10 3 6 15
10 26 10 10 0 19 -4 19 -10z m-50 -48 c0 -2 -7 -10 -15 -18 -13 -14 -17 -14
-30 0 -20 20 -19 21 15 21 17 0 30 -1 30 -3z m130 -2 c0 -5 -5 -10 -11 -10 -5
0 -7 5 -4 10 3 6 8 10 11 10 2 0 4 -4 4 -10z m-370 -10 c0 -5 -10 -10 -22 -10
-19 0 -20 2 -8 10 19 13 30 13 30 0z m585 -30 c-3 -5 -11 -10 -16 -10 -6 0 -7
5 -4 10 3 6 11 10 16 10 6 0 7 -4 4 -10z m-1315 -34 c0 -3 -4 -8 -10 -11 -5
-3 -10 -1 -10 4 0 6 5 11 10 11 6 0 10 -2 10 -4z m825 -5 c28 -6 -2 -9 -100
-8 -94 0 -124 2 -90 7 72 10 144 10 190 1z m-1007 -116 c-3 -3 -9 2 -12 12 -6
14 -5 15 5 6 7 -7 10 -15 7 -18z m1009 -31 c-3 -3 -12 -4 -19 -1 -8 3 -5 6 6
6 11 1 17 -2 13 -5z m190 -10 c-3 -3 -12 -4 -19 -1 -8 3 -5 6 6 6 11 1 17 -2
13 -5z"/>
<path d="M6330 5350 c-8 -5 -12 -12 -9 -15 8 -8 39 5 39 16 0 11 -11 11 -30
-1z"/>
<path d="M6270 5314 c-16 -8 -28 -10 -34 -4 -17 17 -36 11 -36 -10 0 -21 15
-27 25 -10 4 7 13 6 27 -1 15 -8 19 -8 14 0 -4 6 -3 11 1 11 5 0 18 7 29 15
24 18 8 18 -26 -1z"/>
<path d="M6237 5273 c-12 -11 -8 -22 14 -34 17 -8 20 -8 14 1 -4 7 -1 17 6 22
10 6 7 7 -10 3 -16 -5 -21 -4 -17 4 8 12 3 15 -7 4z"/>
<path d="M6200 5260 c0 -5 5 -10 11 -10 5 0 7 5 4 10 -3 6 -8 10 -11 10 -2 0
-4 -4 -4 -10z"/>
<path d="M6230 5220 c0 -5 5 -10 11 -10 5 0 7 5 4 10 -3 6 -8 10 -11 10 -2 0
-4 -4 -4 -10z"/>
<path d="M6350 4790 c0 -5 5 -10 10 -10 6 0 10 5 10 10 0 6 -4 10 -10 10 -5 0
-10 -4 -10 -10z"/>
<path d="M7380 6409 c0 -5 5 -7 10 -4 6 3 10 8 10 11 0 2 -4 4 -10 4 -5 0 -10
-5 -10 -11z"/>
<path d="M4920 6394 c0 -3 16 -29 35 -58 19 -29 35 -60 35 -68 0 -17 24 -31
34 -20 4 3 19 8 33 10 15 2 34 7 42 12 13 7 10 9 -10 10 -14 0 -34 9 -44 20
-9 10 -20 18 -24 17 -4 -1 -24 17 -46 41 -36 38 -55 51 -55 36z"/>
<path d="M7360 6370 c0 -5 5 -10 10 -10 6 0 10 5 10 10 0 6 -4 10 -10 10 -5 0
-10 -4 -10 -10z"/>
<path d="M7490 6370 c0 -5 5 -10 11 -10 5 0 7 5 4 10 -3 6 -8 10 -11 10 -2 0
-4 -4 -4 -10z"/>
<path d="M7550 6370 c0 -5 6 -10 14 -10 8 0 18 5 21 10 3 6 -3 10 -14 10 -12
0 -21 -4 -21 -10z"/>
<path d="M7678 6373 c6 -2 18 -2 25 0 6 3 1 5 -13 5 -14 0 -19 -2 -12 -5z"/>
<path d="M7505 6323 c-20 -15 -20 -15 3 -10 15 4 22 1 22 -10 0 -9 -6 -13 -15
-10 -8 4 -17 2 -21 -4 -9 -16 1 -21 29 -14 19 5 23 11 19 27 -3 14 -1 19 6 14
6 -3 13 -2 16 3 3 5 -1 12 -10 15 -22 8 -26 7 -49 -11z"/>
<path d="M7620 6330 c0 -5 5 -10 10 -10 6 0 10 5 10 10 0 6 -4 10 -10 10 -5 0
-10 -4 -10 -10z"/>
<path d="M5591 6314 c0 -11 3 -14 6 -6 3 7 2 16 -1 19 -3 4 -6 -2 -5 -13z"/>
<path d="M7235 6309 c-4 -6 -5 -12 -2 -15 2 -3 7 2 10 11 7 17 1 20 -8 4z"/>
<path d="M5190 6285 c0 -9 9 -15 25 -15 14 0 43 -9 65 -20 50 -26 54 -25 34 5
-13 20 -25 25 -56 25 -23 0 -37 4 -33 10 3 6 -3 10 -14 10 -12 0 -21 -7 -21
-15z"/>
<path d="M7675 6292 c-10 -10 -5 -19 10 -19 8 0 16 6 19 12 4 11 -19 17 -29 7z"/>
<path d="M7580 6280 c0 -5 6 -10 14 -10 8 0 18 5 21 10 3 6 -3 10 -14 10 -12
0 -21 -4 -21 -10z"/>
<path d="M7226 6264 c-9 -23 -2 -28 13 -10 7 8 8 17 3 20 -6 3 -13 -1 -16 -10z"/>
<path d="M7325 6260 c3 -5 8 -10 11 -10 2 0 4 5 4 10 0 6 -5 10 -11 10 -5 0
-7 -4 -4 -10z"/>
<path d="M5755 6239 c-4 -6 -5 -12 -2 -15 2 -3 7 2 10 11 7 17 1 20 -8 4z"/>
<path d="M7485 6243 c-27 -7 -46 -23 -39 -35 3 -5 0 -15 -6 -23 -10 -13 -8
-15 12 -15 21 0 24 4 21 24 -4 19 0 25 21 30 14 3 26 11 26 16 0 10 -3 11 -35
3z"/>
<path d="M7565 6239 c-3 -3 3 -9 13 -11 11 -3 19 0 19 7 0 13 -25 16 -32 4z"/>
<path d="M7650 6240 c-12 -7 -10 -9 8 -7 12 0 22 5 22 9 0 11 -12 10 -30 -2z"/>
<path d="M5431 6223 c-1 -13 7 -27 19 -33 16 -9 18 -8 14 5 -4 8 -10 15 -14
15 -5 0 -11 8 -13 18 -4 13 -5 12 -6 -5z"/>
<path d="M7191 6207 c0 -18 3 -25 6 -17 3 8 10 20 15 26 5 8 3 14 -7 18 -12 4
-15 -2 -14 -27z"/>
<path d="M7326 6232 c-3 -5 1 -15 9 -22 16 -14 20 -3 6 19 -5 8 -11 9 -15 3z"/>
<path d="M5274 6189 c-4 -7 1 -18 11 -26 12 -8 14 -13 6 -13 -7 0 -11 -6 -8
-14 4 -9 -1 -17 -11 -19 -12 -3 -10 -5 6 -6 13 0 32 -6 44 -12 11 -6 22 -8 25
-5 3 3 -6 11 -21 17 -30 14 -35 34 -6 26 15 -4 20 0 20 14 0 10 -5 19 -12 19
-6 0 -19 7 -29 16 -13 12 -19 12 -25 3z"/>
<path d="M7600 6182 c-13 -14 -12 -15 4 -9 12 5 16 3 14 -5 -3 -7 -9 -13 -14
-13 -19 0 -34 -17 -34 -38 0 -22 1 -22 21 3 17 21 20 22 15 5 -6 -19 -6 -19 9
-1 8 10 12 22 10 27 -3 4 0 9 7 11 10 4 9 8 -2 20 -14 13 -17 13 -30 0z"/>
<path d="M7370 6180 c-9 -6 -10 -10 -3 -10 6 0 15 5 18 10 8 12 4 12 -15 0z"/>
<path d="M7532 6179 c2 -6 8 -10 13 -10 5 0 11 4 13 10 2 6 -4 11 -13 11 -9 0
-15 -5 -13 -11z"/>
<path d="M5480 6176 c0 -2 8 -10 18 -17 15 -13 16 -12 3 4 -13 16 -21 21 -21
13z"/>
<path d="M5224 6135 c3 -8 0 -15 -6 -15 -6 0 -9 -2 -6 -5 6 -6 58 18 58 28 0
4 -12 7 -26 7 -19 0 -25 -4 -20 -15z"/>
<path d="M7495 6140 c-3 -5 1 -10 9 -10 9 0 16 5 16 10 0 6 -4 10 -9 10 -6 0
-13 -4 -16 -10z"/>
<path d="M5935 6120 c-3 -5 -1 -10 4 -10 6 0 11 5 11 10 0 6 -2 10 -4 10 -3 0
-8 -4 -11 -10z"/>
<path d="M7390 6120 c0 -5 5 -10 10 -10 6 0 10 5 10 10 0 6 -4 10 -10 10 -5 0
-10 -4 -10 -10z"/>
<path d="M8155 6120 c-3 -5 -15 -10 -26 -10 -10 0 -19 -4 -19 -9 0 -4 12 -6
28 -3 26 4 26 4 7 -12 -11 -8 -15 -15 -10 -16 15 0 31 13 38 32 7 19 -8 34
-18 18z"/>
<path d="M7355 6089 c-4 -6 -13 -8 -21 -5 -8 3 -14 1 -14 -4 0 -5 10 -10 23
-13 21 -3 21 -4 2 -12 -11 -5 -25 -16 -31 -24 -10 -13 -14 -13 -30 -1 -16 12
-17 12 -6 0 18 -21 15 -30 -10 -30 -28 0 -55 -16 -45 -27 4 -4 17 -2 27 5 28
17 32 15 18 -8 -7 -11 -19 -18 -25 -15 -17 6 -43 -4 -43 -17 0 -6 9 -8 20 -5
17 4 19 1 14 -19 -3 -13 -2 -24 2 -24 12 0 36 16 33 21 -1 2 12 20 29 39 17
19 30 38 29 41 -4 11 25 39 35 33 6 -4 8 1 4 13 -4 12 -1 25 9 33 8 7 12 16 9
21 -7 12 -21 11 -29 -2z"/>
<path d="M7540 6085 c0 -2 8 -9 18 -14 14 -7 19 -6 19 3 0 6 -9 13 -19 13 -10
1 -18 0 -18 -2z"/>
<path d="M5203 6036 c3 -21 8 -40 9 -42 2 -2 36 2 76 7 59 8 78 7 103 -5 28
-14 29 -14 27 7 -2 12 -7 28 -11 35 -11 17 -52 15 -67 -3 -21 -25 -80 -19
-113 13 l-30 27 6 -39z"/>
<path d="M8111 6044 c-18 -21 -6 -30 14 -11 8 9 15 18 15 21 0 11 -15 5 -29
-10z"/>
<path d="M6089 6043 c-1 -5 0 -12 1 -18 1 -5 -2 -7 -5 -3 -12 12 -45 -11 -39
-27 4 -8 10 -12 15 -9 5 3 7 10 4 15 -4 5 3 9 14 9 14 0 21 6 21 20 0 19 -9
29 -11 13z"/>
<path d="M5551 6024 c0 -11 3 -14 6 -6 3 7 2 16 -1 19 -3 4 -6 -2 -5 -13z"/>
<path d="M5996 6031 c-15 -6 -16 -10 -7 -15 8 -5 20 -2 29 8 17 17 9 19 -22 7z"/>
<path d="M5430 6010 c0 -13 18 -22 24 -11 3 5 -1 11 -9 15 -8 3 -15 1 -15 -4z"/>
<path d="M6243 6000 c-13 -5 -23 -14 -23 -20 0 -16 15 -12 35 10 20 22 20 23
-12 10z"/>
<path d="M5935 5982 c-16 -8 -31 -19 -33 -24 -2 -4 -9 -8 -16 -8 -7 0 -23 -9
-36 -20 -13 -11 -29 -20 -37 -20 -7 0 -13 -7 -13 -16 0 -9 3 -14 8 -12 48 24
62 33 62 40 0 5 5 6 11 2 6 -3 14 -3 18 2 8 11 39 31 69 44 23 10 30 31 10 29
-7 -1 -26 -8 -43 -17z"/>
<path d="M8077 5982 c-10 -10 -17 -22 -17 -25 0 -11 39 16 44 30 8 19 -8 16
-27 -5z"/>
<path d="M6171 5983 c-1 -6 -10 -9 -23 -6 -19 4 -20 3 -8 -7 12 -9 8 -11 -22
-7 -26 4 -41 1 -50 -10 -11 -14 -10 -15 12 -8 22 7 23 6 11 -9 -9 -11 -10 -16
-2 -17 20 -3 26 -4 39 -12 11 -8 52 21 44 31 -2 2 -1 6 2 10 3 3 6 -1 6 -8 0
-11 3 -11 12 -2 9 9 10 15 2 20 -6 4 -14 14 -17 22 -3 8 -6 10 -6 3z"/>
<path d="M7120 5979 c0 -5 11 -9 25 -9 14 0 25 4 25 9 0 5 -11 9 -25 9 -14 0
-25 -4 -25 -9z"/>
<path d="M6001 5944 c0 -11 3 -14 6 -6 3 7 2 16 -1 19 -3 4 -6 -2 -5 -13z"/>
<path d="M6027 5920 c-18 -21 -4 -28 23 -10 10 6 12 12 5 19 -8 8 -16 5 -28
-9z"/>
<path d="M8030 5925 c-10 -12 -9 -15 7 -15 11 0 20 7 20 15 0 8 -4 15 -7 15
-4 0 -13 -7 -20 -15z"/>
<path d="M4782 5908 c6 -18 28 -21 28 -4 0 9 -7 16 -16 16 -9 0 -14 -5 -12
-12z"/>
<path d="M7195 5899 c-4 -6 -5 -12 -2 -15 2 -3 7 2 10 11 7 17 1 20 -8 4z"/>
<path d="M7150 5880 c0 -5 4 -10 9 -10 6 0 13 5 16 10 3 6 -1 10 -9 10 -9 0
-16 -4 -16 -10z"/>
<path d="M7972 5860 c-16 -16 -34 -30 -40 -30 -11 0 -62 -46 -62 -56 0 -2 11
3 25 12 23 15 25 15 19 0 -3 -9 -1 -16 5 -16 6 0 11 8 11 18 0 16 15 28 64 50
5 3 5 -2 1 -9 -5 -8 -5 -11 0 -7 8 8 16 68 9 68 -2 0 -17 -13 -32 -30z"/>
<path d="M8204 5855 c-10 -8 -14 -15 -7 -15 19 0 43 11 43 21 0 13 -14 11 -36
-6z"/>
<path d="M5928 5847 c-13 -14 -82 -41 -103 -42 -6 0 -24 -11 -40 -23 -17 -13
-22 -21 -12 -18 13 4 17 -1 18 -22 3 -48 4 -57 12 -79 5 -13 11 -22 15 -20 4
1 8 -1 10 -5 5 -18 1 -28 -12 -28 -8 0 -16 -7 -20 -15 -3 -8 -12 -15 -21 -15
-8 0 -15 -4 -15 -10 0 -22 24 -8 70 41 27 28 53 48 59 45 6 -4 11 -2 11 5 0 7
-13 10 -34 7 -28 -3 -34 -1 -33 14 1 10 5 18 10 18 4 0 5 5 2 10 -3 6 5 14 19
20 14 5 32 24 40 43 7 18 25 43 39 54 15 11 23 23 20 27 -10 9 -20 7 -35 -7z"/>
<path d="M6140 5810 c-13 -8 -12 -10 3 -10 9 0 17 5 17 10 0 12 -1 12 -20 0z"/>
<path d="M7345 5810 c-3 -5 1 -10 10 -10 9 0 13 5 10 10 -3 6 -8 10 -10 10 -2
0 -7 -4 -10 -10z"/>
<path d="M6941 5781 c-8 -6 -9 -11 -3 -15 6 -3 14 -1 17 5 9 14 2 20 -14 10z"/>
<path d="M6520 5770 c0 -5 5 -10 10 -10 6 0 10 5 10 10 0 6 -4 10 -10 10 -5 0
-10 -4 -10 -10z"/>
<path d="M5915 5760 c-11 -17 5 -32 21 -19 7 6 11 15 8 20 -7 12 -21 11 -29
-1z"/>
<path d="M6215 5760 c-3 -5 -1 -10 4 -10 6 0 11 5 11 10 0 6 -2 10 -4 10 -3 0
-8 -4 -11 -10z"/>
<path d="M5262 5748 c-20 -20 -14 -27 12 -15 13 7 22 15 20 19 -7 11 -18 10
-32 -4z"/>
<path d="M5090 5736 c0 -19 19 -31 31 -19 5 5 0 14 -11 21 -17 10 -20 10 -20
-2z"/>
<path d="M6486 5735 c-11 -8 -18 -15 -15 -16 37 -7 49 -4 49 13 0 22 -8 22
-34 3z"/>
<path d="M7225 5730 c-3 -5 -16 -10 -28 -10 -16 0 -18 -3 -9 -12 9 -9 17 -8
37 2 14 7 25 17 25 22 0 11 -18 10 -25 -2z"/>
<path d="M7669 5713 c-13 -16 -12 -17 4 -4 16 13 21 21 13 21 -2 0 -10 -8 -17
-17z"/>
<path d="M5903 5713 c-13 -2 -23 -11 -23 -19 0 -17 19 -18 43 0 17 14 23 27
10 25 -5 -1 -18 -4 -30 -6z"/>
<path d="M3475 5678 c-10 -10 -15 -21 -11 -25 4 -5 13 -1 19 8 9 11 21 13 45
8 18 -4 32 -2 32 3 0 5 10 6 23 3 15 -5 19 -4 12 3 -19 19 -100 19 -120 0z"/>
<path d="M6474 5684 c-15 -13 -16 -15 -2 -10 12 3 15 1 12 -9 -3 -8 -11 -13
-17 -11 -7 1 -9 1 -4 -1 15 -9 6 -24 -10 -19 -18 6 -52 -9 -42 -18 13 -13 65
12 77 37 7 15 18 27 23 27 6 0 7 5 4 10 -9 14 -18 13 -41 -6z"/>
<path d="M6690 5680 c0 -5 5 -10 11 -10 5 0 7 5 4 10 -3 6 -8 10 -11 10 -2 0
-4 -4 -4 -10z"/>
<path d="M6725 5680 c-3 -5 -1 -10 4 -10 6 0 11 5 11 10 0 6 -2 10 -4 10 -3 0
-8 -4 -11 -10z"/>
<path d="M6760 5679 c0 -5 5 -7 10 -4 6 3 10 8 10 11 0 2 -4 4 -10 4 -5 0 -10
-5 -10 -11z"/>
<path d="M3335 5670 c-3 -5 -1 -10 4 -10 6 0 11 5 11 10 0 6 -2 10 -4 10 -3 0
-8 -4 -11 -10z"/>
<path d="M7667 5674 c-4 -4 -4 -10 -1 -15 6 -10 34 0 34 12 0 10 -24 12 -33 3z"/>
<path d="M5925 5640 c-3 -5 1 -10 10 -10 9 0 13 5 10 10 -3 6 -8 10 -10 10 -2
0 -7 -4 -10 -10z"/>
<path d="M6680 5640 c-8 -5 -12 -11 -9 -14 3 -3 14 1 25 9 21 16 8 20 -16 5z"/>
<path d="M3548 5633 c7 -3 16 -2 19 1 4 3 -2 6 -13 5 -11 0 -14 -3 -6 -6z"/>
<path d="M3670 5630 c8 -5 20 -10 25 -10 6 0 3 5 -5 10 -8 5 -19 10 -25 10 -5
0 -3 -5 5 -10z"/>
<path d="M3258 5623 c7 -3 16 -2 19 1 4 3 -2 6 -13 5 -11 0 -14 -3 -6 -6z"/>
<path d="M6130 5610 c0 -5 5 -10 10 -10 6 0 10 5 10 10 0 6 -4 10 -10 10 -5 0
-10 -4 -10 -10z"/>
<path d="M3690 5601 c-14 -4 -20 -10 -14 -13 13 -9 54 1 54 13 0 10 -4 10 -40
0z"/>
<path d="M6440 5601 c-8 -6 -18 -7 -22 -5 -5 3 -17 2 -28 -1 -23 -7 -27 -35
-5 -35 8 0 15 6 15 13 0 8 3 7 10 -3 7 -12 12 -10 29 9 28 32 28 38 1 22z"/>
<path d="M6808 5603 c-10 -2 -18 -9 -18 -14 0 -6 10 -5 23 2 37 20 36 23 -5
12z"/>
<path d="M6758 5593 c7 -3 16 -2 19 1 4 3 -2 6 -13 5 -11 0 -14 -3 -6 -6z"/>
<path d="M8570 5585 c-11 -13 -10 -14 4 -9 9 3 16 10 16 15 0 13 -6 11 -20 -6z"/>
<path d="M6337 5530 c-14 -13 -15 -19 -5 -22 7 -3 18 2 25 11 26 33 10 42 -20
11z"/>
<path d="M6385 5540 c-3 -5 -2 -10 4 -10 5 0 13 5 16 10 3 6 2 10 -4 10 -5 0
-13 -4 -16 -10z"/>
<path d="M5806 5514 c-5 -14 -4 -15 9 -4 17 14 19 20 6 20 -5 0 -12 -7 -15
-16z"/>
<path d="M6721 5494 c0 -11 3 -14 6 -6 3 7 2 16 -1 19 -3 4 -6 -2 -5 -13z"/>
<path d="M6098 5493 c-9 -2 -19 -11 -22 -19 -4 -12 -2 -12 14 -4 15 8 40 33
28 29 -2 -1 -10 -3 -20 -6z"/>
<path d="M6625 5480 c-3 -5 -1 -10 4 -10 6 0 11 5 11 10 0 6 -2 10 -4 10 -3 0
-8 -4 -11 -10z"/>
<path d="M3997 5459 c7 -7 15 -10 18 -7 3 3 -2 9 -12 12 -14 6 -15 5 -6 -5z"/>
<path d="M4045 5430 c10 -11 22 -17 26 -14 5 3 9 0 9 -5 0 -6 16 -11 35 -11
25 0 35 4 35 16 0 11 -6 14 -20 9 -26 -8 -82 4 -74 16 3 5 -3 9 -12 9 -16 0
-16 -1 1 -20z"/>
<path d="M6006 5437 c-16 -11 -15 -13 7 -15 14 -1 27 5 31 13 7 18 -14 20 -38
2z"/>
<path d="M6075 5431 c-3 -5 -1 -12 5 -16 5 -3 10 1 10 9 0 18 -6 21 -15 7z"/>
<path d="M3978 5413 c12 -2 22 -9 22 -14 0 -5 5 -9 10 -9 6 0 10 6 10 13 0 8
-13 13 -32 14 -20 0 -24 -1 -10 -4z"/>
<path d="M5992 5403 c-10 -4 -10 -8 -1 -19 13 -16 29 -10 29 12 0 15 -6 16
-28 7z"/>
<path d="M7825 5400 l-30 -8 32 -1 c17 0 35 4 38 9 7 11 3 11 -40 0z"/>
<path d="M5830 5380 c-13 -8 -13 -10 2 -10 9 0 20 5 23 10 8 13 -5 13 -25 0z"/>
<path d="M5915 5379 c-4 -6 -4 -13 -1 -16 3 -4 6 -1 6 5 0 7 12 10 33 7 25 -4
28 -3 12 4 -27 13 -43 13 -50 0z"/>
<path d="M7716 5370 c-55 -20 -51 -29 9 -19 22 3 33 7 25 8 -10 1 -7 7 10 16
32 18 17 17 -44 -5z"/>
<path d="M3595 5369 c-4 -6 -5 -12 -2 -15 2 -3 7 2 10 11 7 17 1 20 -8 4z"/>
<path d="M3625 5360 c3 -5 8 -10 11 -10 2 0 4 5 4 10 0 6 -5 10 -11 10 -5 0
-7 -4 -4 -10z"/>
<path d="M3954 5355 c16 -8 39 -12 52 -9 34 9 25 14 -32 20 -49 4 -49 4 -20
-11z"/>
<path d="M7561 5347 c-78 -22 -86 -36 -10 -17 24 7 54 11 65 11 12 0 27 6 34
14 16 19 7 19 -89 -8z"/>
<path d="M7788 5363 c7 -3 16 -2 19 1 4 3 -2 6 -13 5 -11 0 -14 -3 -6 -6z"/>
<path d="M4098 5353 c7 -3 16 -2 19 1 4 3 -2 6 -13 5 -11 0 -14 -3 -6 -6z"/>
<path d="M6016 5345 c-10 -8 -24 -16 -30 -18 -6 -2 -8 -7 -4 -11 9 -11 70 23
63 34 -8 12 -6 12 -29 -5z"/>
<path d="M5874 5336 c-11 -8 -15 -18 -10 -23 5 -4 11 -2 13 5 3 6 11 12 19 12
8 0 14 5 14 10 0 14 -13 12 -36 -4z"/>
<path d="M5950 5340 c0 -5 5 -10 10 -10 6 0 10 5 10 10 0 6 -4 10 -10 10 -5 0
-10 -4 -10 -10z"/>
<path d="M3930 5324 c0 -8 5 -12 10 -9 6 4 8 11 5 16 -9 14 -15 11 -15 -7z"/>
<path d="M5645 5330 c-3 -5 -2 -10 4 -10 5 0 13 5 16 10 3 6 2 10 -4 10 -5 0
-13 -4 -16 -10z"/>
<path d="M5946 5307 c-14 -10 -16 -16 -7 -22 15 -9 35 8 30 24 -3 8 -10 7 -23
-2z"/>
<path d="M7418 5313 c7 -3 16 -2 19 1 4 3 -2 6 -13 5 -11 0 -14 -3 -6 -6z"/>
<path d="M5665 5290 c-10 -11 -13 -20 -8 -20 13 0 38 29 31 35 -3 3 -13 -4
-23 -15z"/>
<path d="M5823 5296 c-13 -6 -23 -14 -23 -17 0 -3 -10 -4 -22 -2 -26 4 -31 1
-73 -45 -24 -27 -26 -32 -10 -27 14 5 16 4 7 -3 -7 -5 -24 -7 -38 -4 -19 3
-23 1 -18 -12 3 -9 1 -16 -5 -16 -6 0 -11 4 -11 9 0 5 -3 17 -7 27 -4 11 -2
15 4 11 6 -4 18 2 27 12 15 17 15 19 1 25 -10 4 -36 -14 -77 -55 -59 -58 -60
-61 -31 -55 17 4 33 3 36 -1 11 -17 -12 -36 -42 -35 -28 1 -29 -1 -20 -24 12
-33 11 -37 -3 -28 -7 4 -3 -3 9 -15 17 -16 31 -20 59 -17 49 6 56 16 10 16
-21 0 -35 4 -31 10 3 5 12 7 20 3 11 -3 13 -1 10 10 -6 15 26 29 72 32 12 0
26 5 30 10 4 4 0 5 -9 2 -19 -7 -25 7 -9 17 17 11 101 15 101 5 0 -9 -14 -13
-37 -10 -6 1 -14 -3 -18 -9 -8 -14 17 -13 52 2 15 7 35 12 43 12 8 1 16 11 16
23 2 34 20 50 53 45 16 -2 31 0 35 6 3 6 -15 9 -47 7 -95 -3 -97 -4 -97 -25 0
-23 -17 -25 -44 -5 -18 13 -15 35 5 35 6 0 7 -5 3 -11 -4 -7 -1 -10 6 -7 8 2
16 10 18 18 3 7 0 10 -7 6 -6 -4 -11 -2 -11 3 0 6 9 11 20 11 11 0 20 5 20 10
0 17 -33 7 -52 -15 -9 -11 -20 -17 -24 -13 -13 14 36 46 80 52 27 4 47 13 50
23 8 20 6 21 -21 9z m-210 -131 c-3 -8 -11 -15 -19 -15 -17 0 -18 7 -1 24 15
17 28 11 20 -9z m34 -41 c-3 -3 -12 -4 -19 -1 -8 3 -5 6 6 6 11 1 17 -2 13 -5z"/>
<path d="M6020 5287 c-14 -12 -21 -19 -16 -14 6 4 20 7 32 7 12 0 24 7 28 15
8 22 -15 18 -44 -8z"/>
<path d="M5895 5290 c3 -5 11 -10 16 -10 6 0 7 5 4 10 -3 6 -11 10 -16 10 -6
0 -7 -4 -4 -10z"/>
<path d="M5846 5248 c-45 -23 -41 -33 9 -24 26 5 35 12 35 26 0 11 -1 20 -2
19 -2 -1 -20 -10 -42 -21z"/>
<path d="M5945 5239 c-10 -14 -1 -21 19 -13 9 3 13 10 10 15 -7 12 -21 11 -29
-2z"/>
<path d="M5020 5216 c0 -9 5 -16 10 -16 6 0 10 4 10 9 0 6 -4 13 -10 16 -5 3
-10 -1 -10 -9z"/>
<path d="M4940 5210 c0 -5 5 -10 10 -10 6 0 10 5 10 10 0 6 -4 10 -10 10 -5 0
-10 -4 -10 -10z"/>
<path d="M4058 5198 c5 -5 16 -8 23 -6 8 3 3 7 -10 11 -17 4 -21 3 -13 -5z"/>
<path d="M4124 5195 c-10 -24 6 -38 24 -22 10 8 24 17 32 21 8 3 5 4 -7 2 -13
-2 -23 0 -23 5 0 15 -20 10 -26 -6z"/>
<path d="M3975 5190 c3 -5 11 -10 16 -10 6 0 7 5 4 10 -3 6 -11 10 -16 10 -6
0 -7 -4 -4 -10z"/>
<path d="M4015 5180 c3 -5 8 -10 11 -10 2 0 4 5 4 10 0 6 -5 10 -11 10 -5 0
-7 -4 -4 -10z"/>
<path d="M5855 5160 c-3 -6 1 -13 10 -16 19 -8 30 0 20 15 -8 14 -22 14 -30 1z"/>
<path d="M3965 5149 c-10 -15 3 -25 16 -12 7 7 7 13 1 17 -6 3 -14 1 -17 -5z"/>
<path d="M4170 5144 c0 -10 -6 -14 -15 -10 -8 3 -15 1 -15 -4 0 -6 9 -10 21
-10 16 0 19 -4 14 -20 -5 -15 -2 -20 10 -20 13 0 16 6 13 25 -3 14 -2 25 2 25
12 0 19 -39 9 -46 -5 -3 -9 -14 -9 -25 0 -21 -1 -21 117 -23 83 -1 101 8 35
19 -20 4 -44 9 -52 12 -8 4 -19 5 -24 4 -4 -1 -14 3 -21 9 -10 8 -14 7 -18 -2
-3 -7 -6 -2 -7 12 -2 44 -60 96 -60 54z"/>
<path d="M6758 5143 c7 -3 16 -2 19 1 4 3 -2 6 -13 5 -11 0 -14 -3 -6 -6z"/>
<path d="M4056 5131 c-4 -7 -5 -15 -2 -18 9 -9 19 4 14 18 -4 11 -6 11 -12 0z"/>
<path d="M6978 5133 c6 -2 18 -2 25 0 6 3 1 5 -13 5 -14 0 -19 -2 -12 -5z"/>
<path d="M4010 5096 c0 -9 30 -14 35 -6 4 6 -3 10 -14 10 -12 0 -21 -2 -21 -4z"/>
<path d="M4065 5090 c3 -5 8 -10 11 -10 2 0 4 5 4 10 0 6 -5 10 -11 10 -5 0
-7 -4 -4 -10z"/>
<path d="M4170 5040 c0 -5 5 -10 10 -10 6 0 10 5 10 10 0 6 -4 10 -10 10 -5 0
-10 -4 -10 -10z"/>
<path d="M5577 5005 c-23 -16 -22 -35 3 -35 14 0 18 5 13 18 -5 14 -3 15 8 5
16 -15 29 -17 29 -3 0 18 -34 29 -53 15z"/>
<path d="M2506 4995 c-19 -15 -19 -15 1 -15 11 0 23 7 27 15 7 19 -3 19 -28 0z"/>
<path d="M6256 4975 c-3 -8 -1 -15 4 -15 6 0 10 7 10 15 0 8 -2 15 -4 15 -2 0
-6 -7 -10 -15z"/>
<path d="M6290 4975 c0 -8 5 -15 10 -15 6 0 10 7 10 15 0 8 -4 15 -10 15 -5 0
-10 -7 -10 -15z"/>
<path d="M6237 4929 c7 -7 15 -10 18 -7 3 3 -2 9 -12 12 -14 6 -15 5 -6 -5z"/>
<path d="M5908 4913 c7 -3 16 -2 19 1 4 3 -2 6 -13 5 -11 0 -14 -3 -6 -6z"/>
<path d="M5235 4893 c11 -30 35 -163 35 -199 0 -23 5 -34 14 -34 12 0 13 6 6
28 -4 15 -16 71 -26 125 -9 53 -21 97 -27 97 -5 0 -6 -8 -2 -17z"/>
<path d="M6180 4881 c-19 -5 -21 -8 -10 -13 9 -3 24 0 35 8 20 15 15 16 -25 5z"/>
<path d="M5910 4870 c0 -5 5 -10 10 -10 6 0 10 5 10 10 0 6 -4 10 -10 10 -5 0
-10 -4 -10 -10z"/>
<path d="M5778 4863 c7 -3 16 -2 19 1 4 3 -2 6 -13 5 -11 0 -14 -3 -6 -6z"/>
<path d="M5820 4859 c0 -5 5 -7 10 -4 6 3 10 8 10 11 0 2 -4 4 -10 4 -5 0 -10
-5 -10 -11z"/>
<path d="M6191 4828 c34 -21 74 -21 74 0 0 9 -17 15 -53 16 l-53 3 32 -19z"/>
<path d="M5865 4830 c-3 -5 -1 -10 4 -10 6 0 11 5 11 10 0 6 -2 10 -4 10 -3 0
-8 -4 -11 -10z"/>
<path d="M5818 4823 c7 -3 16 -2 19 1 4 3 -2 6 -13 5 -11 0 -14 -3 -6 -6z"/>
<path d="M5091 4763 c-1 -26 3 -33 18 -33 11 0 22 4 25 9 8 12 -4 41 -16 41
-5 0 -6 -4 -3 -10 3 -5 2 -10 -4 -10 -5 0 -12 8 -14 18 -3 9 -5 2 -6 -15z"/>
<path d="M6120 4780 c0 -5 5 -10 10 -10 6 0 10 5 10 10 0 6 -4 10 -10 10 -5 0
-10 -4 -10 -10z"/>
<path d="M6150 4780 c0 -13 18 -22 24 -11 3 5 -1 11 -9 15 -8 3 -15 1 -15 -4z"/>
<path d="M6072 4747 c-9 -11 -10 -17 -2 -22 15 -9 23 -1 18 21 -3 15 -4 16
-16 1z"/>
<path d="M5312 4700 c9 -26 13 -30 16 -16 2 10 -3 26 -12 35 -15 15 -16 13 -4
-19z"/>
<path d="M5920 4690 c0 -5 9 -10 21 -10 11 0 17 5 14 10 -3 6 -13 10 -21 10
-8 0 -14 -4 -14 -10z"/>
<path d="M7170 4675 c0 -8 2 -15 4 -15 2 0 6 7 10 15 3 8 1 15 -4 15 -6 0 -10
-7 -10 -15z"/>
<path d="M4694 4655 c-16 -12 -17 -14 -3 -15 9 0 19 7 23 15 7 19 5 19 -20 0z"/>
<path d="M6810 4640 c-12 -8 -11 -10 8 -10 12 0 22 5 22 10 0 13 -11 13 -30 0z"/>
<path d="M5126 4627 c3 -10 9 -15 12 -12 3 3 0 11 -7 18 -10 9 -11 8 -5 -6z"/>
<path d="M4590 4601 c0 -5 9 -7 20 -4 11 3 20 7 20 9 0 2 -9 4 -20 4 -11 0
-20 -4 -20 -9z"/>
<path d="M4640 4600 c0 -5 5 -10 10 -10 6 0 10 5 10 10 0 6 -4 10 -10 10 -5 0
-10 -4 -10 -10z"/>
<path d="M4680 4595 c0 -8 -12 -21 -26 -27 -25 -12 -25 -12 -5 -20 23 -8 51
-1 51 14 0 5 5 6 11 2 8 -5 8 -1 0 14 -15 28 -31 37 -31 17z"/>
<path d="M5531 4579 c-1 -9 -18 -23 -38 -32 -36 -14 -34 -17 12 -17 3 0 6 3 7
8 0 4 8 12 16 18 8 6 12 17 9 25 -4 11 -6 10 -6 -2z"/>
<path d="M7072 4567 c7 -8 20 -12 30 -9 25 6 12 22 -18 22 -20 0 -23 -2 -12
-13z"/>
<path d="M4515 4560 c-3 -5 -2 -10 4 -10 5 0 13 5 16 10 3 6 2 10 -4 10 -5 0
-13 -4 -16 -10z"/>
<path d="M4589 4549 c-8 -17 -8 -23 2 -30 7 -4 -5 -5 -28 -2 -24 3 -43 1 -47
-6 -4 -6 -2 -9 7 -5 8 3 18 -5 25 -18 9 -20 11 -20 11 -4 1 11 6 16 15 13 17
-7 76 13 76 25 0 4 -3 7 -7 7 -31 -5 -44 2 -38 21 8 26 -1 26 -16 -1z"/>
<path d="M4970 4560 c0 -5 7 -10 16 -10 8 0 12 5 9 10 -3 6 -10 10 -16 10 -5
0 -9 -4 -9 -10z"/>
<path d="M5650 4540 c0 -5 5 -10 11 -10 5 0 7 5 4 10 -3 6 -8 10 -11 10 -2 0
-4 -4 -4 -10z"/>
<path d="M4968 4533 c7 -3 16 -2 19 1 4 3 -2 6 -13 5 -11 0 -14 -3 -6 -6z"/>
<path d="M4481 4521 c-8 -6 -9 -11 -3 -15 6 -3 14 -1 17 5 9 14 2 20 -14 10z"/>
<path d="M4850 4520 c0 -5 5 -10 10 -10 6 0 10 5 10 10 0 6 -4 10 -10 10 -5 0
-10 -4 -10 -10z"/>
<path d="M4066 4502 c-43 -26 -79 -62 -60 -62 8 0 17 7 20 15 4 8 14 15 23 15
21 0 73 35 64 43 -9 10 -14 9 -47 -11z"/>
<path d="M7025 4500 c-19 -8 -19 -9 3 -9 12 -1 22 4 22 9 0 6 -1 10 -2 9 -2 0
-12 -4 -23 -9z"/>
<path d="M4915 4490 c-3 -5 2 -10 12 -10 11 0 23 -4 29 -10 6 -6 14 -2 23 13
13 20 13 21 -2 9 -12 -10 -21 -11 -36 -3 -13 7 -22 8 -26 1z"/>
<path d="M5021 4490 c-9 -5 -7 -9 8 -13 12 -3 23 -2 26 3 7 11 -19 20 -34 10z"/>
<path d="M4503 4478 c-13 -6 -25 -20 -29 -30 -4 -14 -12 -18 -27 -14 -21 5
-77 -21 -77 -37 0 -4 5 -5 12 -1 7 4 8 3 4 -4 -4 -7 -15 -12 -24 -12 -10 0
-22 -10 -27 -22 -6 -13 -17 -22 -27 -20 -9 1 -19 -2 -23 -8 -3 -5 -17 -10 -31
-10 -14 0 -27 -7 -31 -17 -4 -10 -14 -23 -22 -30 -14 -11 -12 -12 11 -13 18 0
26 4 23 13 -6 13 33 42 43 32 4 -4 -1 -11 -11 -16 -17 -10 -24 -29 -9 -29 4 0
27 19 52 43 25 23 58 51 73 61 17 10 26 23 23 31 -3 9 0 12 8 9 19 -7 66 14
66 30 0 7 15 17 33 21 17 4 26 9 19 12 -6 2 -10 9 -6 14 6 11 5 11 -23 -3z"/>
<path d="M4805 4469 c-11 -17 1 -21 15 -4 8 9 8 15 2 15 -6 0 -14 -5 -17 -11z"/>
<path d="M6948 4473 c7 -3 16 -2 19 1 4 3 -2 6 -13 5 -11 0 -14 -3 -6 -6z"/>
<path d="M4395 4460 c-3 -6 1 -7 9 -4 18 7 21 14 7 14 -6 0 -13 -4 -16 -10z"/>
<path d="M4445 4460 c3 -5 8 -10 11 -10 2 0 4 5 4 10 0 6 -5 10 -11 10 -5 0
-7 -4 -4 -10z"/>
<path d="M5086 4451 c-6 -10 38 -35 53 -30 6 2 -3 12 -19 21 -16 9 -32 13 -34
9z"/>
<path d="M5035 4439 c-4 -6 -4 -13 -1 -16 3 -4 6 -1 6 5 0 6 8 13 18 15 15 4
15 5 0 6 -9 0 -20 -4 -23 -10z"/>
<path d="M3970 4433 c0 -12 -48 -35 -60 -28 -5 3 -11 1 -14 -4 -3 -5 8 -8 24
-7 32 2 69 30 57 42 -4 4 -7 3 -7 -3z"/>
<path d="M4760 4421 c-12 -24 -13 -34 -1 -27 9 6 22 46 15 46 -2 0 -8 -9 -14
-19z"/>
<path d="M4845 4420 c-3 -5 -1 -10 4 -10 6 0 11 5 11 10 0 6 -2 10 -4 10 -3 0
-8 -4 -11 -10z"/>
<path d="M5151 4403 c-8 -9 -23 -12 -42 -8 -22 5 -29 3 -29 -9 0 -9 7 -16 16
-16 9 0 13 -5 10 -12 -3 -7 -9 -21 -12 -30 -4 -10 -10 -18 -15 -18 -5 0 -14
-11 -19 -25 -5 -14 -15 -25 -21 -25 -6 0 -8 -7 -5 -16 4 -9 2 -13 -5 -8 -8 4
-9 -1 -4 -15 5 -16 2 -21 -11 -21 -13 0 -15 -3 -7 -11 16 -16 44 -4 37 16 -4
10 0 15 10 15 14 0 21 12 17 33 -1 4 10 25 24 47 14 22 25 45 25 51 0 23 33
43 67 41 19 -2 32 1 29 6 -10 16 -52 19 -65 5z"/>
<path d="M5036 4387 c3 -10 9 -15 12 -12 3 3 0 11 -7 18 -10 9 -11 8 -5 -6z"/>
<path d="M5160 4376 c0 -2 8 -10 18 -17 15 -13 16 -12 3 4 -13 16 -21 21 -21
13z"/>
<path d="M3870 4355 c-8 -9 -8 -15 -2 -15 12 0 26 19 19 26 -2 2 -10 -2 -17
-11z"/>
<path d="M5022 4348 c-7 -7 -12 -23 -12 -37 0 -30 15 -17 24 22 7 30 5 32 -12
15z"/>
<path d="M5064 4349 c-3 -6 -1 -16 5 -22 8 -8 11 -5 11 11 0 24 -5 28 -16 11z"/>
<path d="M4660 4329 c-20 -15 -21 -18 -5 -13 17 6 18 5 7 -7 -7 -8 -18 -14
-24 -14 -6 0 -13 -6 -15 -12 -8 -22 14 -14 47 17 38 36 29 60 -10 29z"/>
<path d="M3798 4313 c-16 -8 -28 -18 -28 -24 0 -5 -7 -9 -16 -9 -8 0 -13 -4
-10 -9 5 -8 -25 -26 -32 -19 -2 2 -8 -5 -13 -15 -6 -9 -14 -15 -19 -12 -5 3
-12 0 -16 -6 -5 -8 -3 -9 7 -4 8 5 11 5 7 0 -4 -4 -18 -13 -30 -20 -13 -6 -22
-17 -20 -23 1 -7 -7 -12 -19 -12 -11 0 -17 -4 -14 -10 3 -5 -5 -21 -18 -34
-22 -22 -23 -24 -5 -23 10 1 21 11 24 24 4 13 11 23 16 23 8 0 66 46 191 152
37 31 34 41 -5 21z"/>
<path d="M4572 4240 c-18 -11 -32 -23 -32 -27 0 -4 5 -2 11 4 6 6 17 9 24 7
12 -5 42 23 33 31 -2 2 -18 -5 -36 -15z"/>
<path d="M4966 4238 c-9 -12 -16 -30 -16 -39 0 -9 -7 -22 -15 -29 -17 -14 -20
-30 -5 -30 6 0 10 6 10 13 0 7 9 18 20 25 11 7 20 20 20 30 0 10 5 23 11 29 7
7 7 13 1 17 -6 4 -18 -4 -26 -16z"/>
<path d="M4166 4231 c-13 -14 -14 -20 -4 -24 17 -6 38 17 29 32 -5 8 -12 6
-25 -8z"/>
<path d="M4120 4195 c-11 -13 -10 -14 4 -9 9 3 16 10 16 15 0 13 -6 11 -20 -6z"/>
<path d="M4493 4187 c-13 -5 -23 -16 -23 -23 0 -7 -4 -14 -9 -16 -15 -5 -141
-122 -141 -131 0 -4 14 -1 30 8 17 9 30 22 30 29 0 8 13 17 29 21 16 3 39 17
51 31 13 13 27 24 31 24 7 0 69 55 69 62 0 8 -47 5 -67 -5z"/>
<path d="M4080 4162 c0 -5 9 -8 20 -7 29 2 33 10 5 13 -14 1 -25 -2 -25 -6z"/>
<path d="M5015 4150 c-3 -5 1 -10 9 -10 9 0 16 5 16 10 0 6 -4 10 -9 10 -6 0
-13 -4 -16 -10z"/>
<path d="M4050 4140 c-1 -3 -3 -14 -5 -24 -2 -10 -11 -26 -21 -35 -9 -9 -14
-10 -10 -3 27 47 -64 -38 -115 -108 -43 -60 -44 -66 -3 -28 142 132 194 184
194 192 0 5 -6 3 -14 -3 -11 -9 -15 -9 -19 1 -3 7 -6 11 -7 8z"/>
<path d="M4886 4104 c-8 -22 1 -31 16 -16 9 9 9 15 1 23 -7 7 -12 5 -17 -7z"/>
<path d="M4985 4099 c-12 -19 5 -23 22 -6 16 16 16 17 1 17 -9 0 -20 -5 -23
-11z"/>
<path d="M4855 4060 c-3 -5 3 -10 14 -10 12 0 21 5 21 10 0 6 -6 10 -14 10 -8
0 -18 -4 -21 -10z"/>
<path d="M4955 4060 c-3 -5 -2 -10 4 -10 5 0 13 5 16 10 3 6 2 10 -4 10 -5 0
-13 -4 -16 -10z"/>
<path d="M8640 4030 c0 -5 5 -10 11 -10 5 0 7 5 4 10 -3 6 -8 10 -11 10 -2 0
-4 -4 -4 -10z"/>
<path d="M4580 4000 c0 -5 5 -10 10 -10 6 0 10 5 10 10 0 6 -4 10 -10 10 -5 0
-10 -4 -10 -10z"/>
<path d="M4290 3989 c0 -5 5 -7 10 -4 6 3 10 8 10 11 0 2 -4 4 -10 4 -5 0 -10
-5 -10 -11z"/>
<path d="M4795 3960 c-3 -5 -2 -10 4 -10 5 0 13 5 16 10 3 6 2 10 -4 10 -5 0
-13 -4 -16 -10z"/>
<path d="M4685 3897 c-31 -19 -48 -37 -35 -37 7 0 25 11 42 25 31 26 27 33 -7
12z"/>
<path d="M4765 3899 c-11 -17 1 -21 15 -4 8 9 8 15 2 15 -6 0 -14 -5 -17 -11z"/>
<path d="M3810 3870 c-41 -42 -30 -52 12 -12 17 18 29 35 25 38 -3 3 -20 -8
-37 -26z"/>
<path d="M4716 3863 c-6 -14 -5 -15 5 -6 7 7 10 15 7 18 -3 3 -9 -2 -12 -12z"/>
<path d="M4738 3848 c-10 -10 -14 -18 -9 -18 10 0 36 29 30 34 -2 1 -12 -6
-21 -16z"/>
<path d="M4415 3840 c-3 -5 -2 -10 4 -10 5 0 13 5 16 10 3 6 2 10 -4 10 -5 0
-13 -4 -16 -10z"/>
<path d="M4693 3805 c-7 -8 -13 -20 -13 -27 0 -8 5 -6 11 5 5 9 16 17 24 17 8
0 17 5 20 10 10 15 -28 11 -42 -5z"/>
<path d="M4630 3714 c0 -8 5 -12 10 -9 6 3 10 10 10 16 0 5 -4 9 -10 9 -5 0
-10 -7 -10 -16z"/>
<path d="M4005 3690 c3 -5 8 -10 11 -10 2 0 4 5 4 10 0 6 -5 10 -11 10 -5 0
-7 -4 -4 -10z"/>
<path d="M4600 3675 c-7 -9 -11 -18 -8 -20 3 -3 11 1 18 10 7 9 11 18 8 20 -3
3 -11 -1 -18 -10z"/>
<path d="M4685 3679 c-11 -16 -1 -19 13 -3 7 8 8 14 3 14 -5 0 -13 -5 -16 -11z"/>
<path d="M4543 3665 c-3 -9 -3 -18 -1 -21 3 -3 8 4 11 16 6 23 -1 27 -10 5z"/>
<path d="M4505 3610 c3 -5 11 -10 16 -10 6 0 7 5 4 10 -3 6 -11 10 -16 10 -6
0 -7 -4 -4 -10z"/>
<path d="M4477 3580 c-12 -12 -15 -20 -8 -25 6 -3 11 -1 11 4 0 6 11 11 24 11
14 0 28 5 31 10 3 6 2 10 -4 10 -5 0 -15 2 -23 4 -7 3 -21 -3 -31 -14z"/>
<path d="M4438 3533 c-24 -6 -23 -19 0 -19 10 0 19 6 19 13 0 7 -1 12 -1 12
-1 -1 -9 -3 -18 -6z"/>
<path d="M4410 3480 c0 -5 5 -10 10 -10 6 0 10 5 10 10 0 6 -4 10 -10 10 -5 0
-10 -4 -10 -10z"/>
<path d="M5921 7104 c0 -11 3 -14 6 -6 3 7 2 16 -1 19 -3 4 -6 -2 -5 -13z"/>
<path d="M5937 6969 c-7 -26 17 -67 28 -48 5 7 0 16 -10 21 -14 8 -15 12 -4
19 10 6 11 11 3 19 -8 8 -13 5 -17 -11z"/>
<path d="M6030 6620 c0 -5 5 -10 10 -10 6 0 10 5 10 10 0 6 -4 10 -10 10 -5 0
-10 -4 -10 -10z"/>
<path d="M2775 6300 c-3 -5 -1 -10 4 -10 6 0 11 5 11 10 0 6 -2 10 -4 10 -3 0
-8 -4 -11 -10z"/>
</g>
</svg>
